<svg xmlns="http://www.w3.org/2000/svg" xmlns:xlink="http://www.w3.org/1999/xlink" viewBox="0 0 15.27 10.9"><path d="M14.41,5.8,9.47.85a.48.48,0,0,1,0-.7.48.48,0,0,1,.7,0l4.95,4.94a.5.5,0,1,1-.71.71" transform="translate(0 0)" fill="currentColor" fill-rule="evenodd"/><path d="M10.17,10.75,15.12,5.8a.5.5,0,0,0,0-.71.51.51,0,0,0-.71,0L9.47,10a.5.5,0,0,0,0,.71.48.48,0,0,0,.7,0" fill="currentColor" fill-rule="evenodd"/><path d="M14.77,6H.5a.5.5,0,0,1-.5-.5A.5.5,0,0,1,.5,5H14.77a.5.5,0,0,1,.5.5.51.51,0,0,1-.5.5" fill="currentColor" fill-rule="evenodd"/></svg>