<svg xmlns="http://www.w3.org/2000/svg" xmlns:xlink="http://www.w3.org/1999/xlink" viewBox="0 0 30.5 27.5"><path d="M22.24,10.93a8.26,8.26,0,1,0,8.26,8.25,8.25,8.25,0,0,0-8.26-8.25m0,15A6.76,6.76,0,1,1,29,19.18a6.76,6.76,0,0,1-6.76,6.76" fill="currentColor"/><path d="M26.54,14.89a.74.74,0,0,0-1.06,0l-3.24,3.23L19,14.89A.75.75,0,0,0,17.94,16l3.24,3.23-3.24,3.24a.75.75,0,0,0,.54,1.28.74.74,0,0,0,.53-.22l3.23-3.24,3.24,3.24a.73.73,0,0,0,.53.22.74.74,0,0,0,.53-.22.75.75,0,0,0,0-1.06L23.3,19.18,26.54,16a.75.75,0,0,0,0-1.06" fill="currentColor"/><path d="M8.5,26V20.75a2.25,2.25,0,0,1,2.25-2.25h1.77a9.35,9.35,0,0,1,.22-1.5h-2A3.75,3.75,0,0,0,7,20.75v5.11a2.25,2.25,0,0,1-1.5-2.11V8.5H11v2.25a2.75,2.75,0,0,0,2.75,2.75h.58A9.52,9.52,0,0,1,15.66,12H13.75a1.25,1.25,0,0,1-1.25-1.25V8.5H17v2.25A1.11,1.11,0,0,1,17,11a10,10,0,0,1,1.55-.83V8.5H25V9.83a8.82,8.82,0,0,1,1.5.59V8.34a1.68,1.68,0,0,0,1-1.54v-3A3.75,3.75,0,0,0,23.75,0h-17A3.75,3.75,0,0,0,3,3.75V6.8A1.68,1.68,0,0,0,4,8.34V11H2.25A2.25,2.25,0,0,0,0,13.25v9A2.25,2.25,0,0,0,2.25,24.5H4.08a3.75,3.75,0,0,0,3.67,3h9.41A10.05,10.05,0,0,1,15.25,26ZM4,23H2.25a.76.76,0,0,1-.75-.75v-9a.76.76,0,0,1,.75-.75H4ZM4.7,7a.2.2,0,0,1-.2-.2v-3A2.25,2.25,0,0,1,6.74,1.5h17A2.25,2.25,0,0,1,26,3.75V6.8a.2.2,0,0,1-.2.2H4.7Z" fill="currentColor"/><path d="M28.25,11h-.71a9.88,9.88,0,0,1,3,3v-.76A2.25,2.25,0,0,0,28.25,11" fill="currentColor"/></svg>