<svg xmlns="http://www.w3.org/2000/svg" xmlns:xlink="http://www.w3.org/1999/xlink" viewBox="0 0 30.5 27.5"><path d="M28.25,11H26.5V8.34a1.68,1.68,0,0,0,1-1.54v-3A3.75,3.75,0,0,0,23.75,0h-17A3.75,3.75,0,0,0,3,3.75V6.8A1.68,1.68,0,0,0,4,8.34V11H2.25A2.25,2.25,0,0,0,0,13.25v9A2.25,2.25,0,0,0,2.25,24.5H4.08a3.75,3.75,0,0,0,3.67,3h15a3.75,3.75,0,0,0,3.67-3h1.83a2.25,2.25,0,0,0,2.25-2.25v-9A2.25,2.25,0,0,0,28.25,11M4.5,3.75A2.25,2.25,0,0,1,6.75,1.5h17A2.25,2.25,0,0,1,26,3.75V6.8a.2.2,0,0,1-.2.2H4.7a.2.2,0,0,1-.2-.2Zm8,4.75H17v2.25A1.25,1.25,0,0,1,15.75,12h-2a1.25,1.25,0,0,1-1.25-1.25ZM1.5,22.25v-9a.75.75,0,0,1,.75-.75H4V23H2.25a.76.76,0,0,1-.75-.75M8.5,26V20.75a2.25,2.25,0,0,1,2.25-2.25h9A2.25,2.25,0,0,1,22,20.75L22,26Zm15-.1V20.75A3.75,3.75,0,0,0,19.75,17h-9A3.75,3.75,0,0,0,7,20.75v5.11a2.25,2.25,0,0,1-1.5-2.11V8.5H11v2.25a2.75,2.75,0,0,0,2.75,2.75h2a2.75,2.75,0,0,0,2.75-2.75V8.5H25V23.75a2.25,2.25,0,0,1-1.5,2.11M29,22.25a.76.76,0,0,1-.75.75H26.5V12.5h1.75a.76.76,0,0,1,.75.75Z" fill="currentColor"/></svg>