<svg xmlns="http://www.w3.org/2000/svg" xmlns:xlink="http://www.w3.org/1999/xlink" viewBox="0 0 26.98 27.5"><path d="M26.76,6.12,23.18,2.54a.75.75,0,0,0-1.06,0L11.51,13.14a.75.75,0,0,0,0,1.06l3.58,3.59a.77.77,0,0,0,.53.21.76.76,0,0,0,.53-.21l8.44-8.44h0l2.16-2.16a.75.75,0,0,0,0-1.06M15.62,16.19,13.1,13.67l7.38-7.38L23,8.81Zm8.44-8.44L21.54,5.23l1.11-1.1,2.52,2.52Z" fill="currentColor"/><path d="M9,21.74a.79.79,0,0,0,.54.22.73.73,0,0,0,.35-.09l3.72-2a.76.76,0,0,0,.18-1.2l-3.18-3.18a.75.75,0,0,0-1.19.18l-2,3.73a.76.76,0,0,0,.13.88Zm1.27-4.44L12,19.05,9.65,20.29,9,19.64Z" fill="currentColor"/><path d="M21,23.75A2.25,2.25,0,0,1,18.75,26h-15A2.25,2.25,0,0,1,1.5,23.75v-20A2.25,2.25,0,0,1,3.75,1.5H21v0l.06-.05A2.21,2.21,0,0,1,22.5.83V0H3.75A3.75,3.75,0,0,0,0,3.75v20A3.75,3.75,0,0,0,3.75,27.5h15a3.75,3.75,0,0,0,3.75-3.75V13.56L21,15.06Z" fill="currentColor"/><path d="M13.64,5.43a.75.75,0,0,0-.75-.75h-9a.75.75,0,0,0,0,1.5h9a.76.76,0,0,0,.75-.75" fill="currentColor"/><path d="M10.44,9.43a.75.75,0,0,0-.75-.75H3.92a.75.75,0,0,0,0,1.5H9.69a.76.76,0,0,0,.75-.75" fill="currentColor"/></svg>