<svg xmlns="http://www.w3.org/2000/svg" xmlns:xlink="http://www.w3.org/1999/xlink" viewBox="0 0 26.32 29.33"><path d="M2.66,16a1,1,0,0,1-1.39,0,1,1,0,0,1,0-1.38l12.6-12.6A7.35,7.35,0,0,1,24.21,12.51L9.1,27.63,9,27.7a5.77,5.77,0,0,1-3.59,1.63,5.4,5.4,0,0,1-3.8-1.51v0l0,0A5.63,5.63,0,0,1,.3,25.85,4.49,4.49,0,0,1,0,23.67a5.39,5.39,0,0,1,1-2.51A12.86,12.86,0,0,1,2.53,19.4l14-14a3.12,3.12,0,0,1,4.38,0l0,0A3.1,3.1,0,0,1,21,9.71L21,9.78,8.88,21.85A1,1,0,0,1,7.5,20.47L19.6,8.36a1.17,1.17,0,0,0,0-1.6,1.15,1.15,0,0,0-1.63,0l-14,14A10.75,10.75,0,0,0,2.6,22.26,3.62,3.62,0,0,0,2,23.89a2.57,2.57,0,0,0,.15,1.26,3.61,3.61,0,0,0,3.23,2.23,3.93,3.93,0,0,0,2.36-1.14L22.83,11.13a5.4,5.4,0,0,0-7.59-7.69Z" fill="currentColor"/></svg>