<svg xmlns="http://www.w3.org/2000/svg" xmlns:xlink="http://www.w3.org/1999/xlink" viewBox="0 0 32.77 27.69"><path d="M2.36,19.5l6.05-5v2.17h9v5.68h-9v2.17ZM0,19.5l9.91,8.19V23.84h9V15.16h-9V11.31Z" fill="currentColor"/><path d="M18.92,0A13.83,13.83,0,0,0,5.1,13.34L6.73,12a12.34,12.34,0,1,1,21.89,9.46,21.2,21.2,0,0,0-2.44-1.15l-.34-.14-2.93-1.24V17.88c.18-.28.36-.58.54-.91.07-.14.16-.29.24-.44a9.44,9.44,0,0,0,.84-1.79h0a3.15,3.15,0,0,0,.89-1.25,5.74,5.74,0,0,0,.24-2A1.46,1.46,0,0,0,25,10.32a9.25,9.25,0,0,0,0-1c0-2.45-1.83-5.09-5.81-5.09H19a6,6,0,0,0-4.49,1.69A5,5,0,0,0,13.2,9.27c0,.33,0,.68,0,1.05a1.44,1.44,0,0,0-.67,1.21,6,6,0,0,0,.23,2c0,.07.06.12.09.18h1.87a.87.87,0,0,0-.1-.08,1.73,1.73,0,0,1-.45-.61,9.6,9.6,0,0,1-.22-1.37.75.75,0,0,0,.75-.77,12.3,12.3,0,0,1,0-1.49A3.44,3.44,0,0,1,15.62,7,4.48,4.48,0,0,1,19,5.75h.12c3.17,0,4.3,1.94,4.31,3.66a10.71,10.71,0,0,1,0,1.42.69.69,0,0,0,.17.54.66.66,0,0,0,.5.23A4.59,4.59,0,0,1,24,13a1.62,1.62,0,0,1-.44.61.73.73,0,0,0-.43.52,6.65,6.65,0,0,1-.76,1.7c-.09.16-.18.31-.26.47a7.71,7.71,0,0,1-.58.95.73.73,0,0,0-.13.43v1.77a.76.76,0,0,0,.45.69l.25.1,3.15,1.34.34.15c.63.26,1.4.58,2,.91a12.33,12.33,0,0,1-8.69,3.58,12.09,12.09,0,0,1-4.47-.85h-3v.13A13.84,13.84,0,1,0,18.92,0" fill="currentColor"/></svg>