<svg xmlns="http://www.w3.org/2000/svg" xmlns:xlink="http://www.w3.org/1999/xlink" viewBox="0 0 27.65 27.5"><path d="M9.24,8.49a.75.75,0,0,0-1.06,0L5.67,11a.76.76,0,0,0,0,1.07L13.2,19.6a.77.77,0,0,0,.53.22.75.75,0,0,0,.53-.22L27.43,6.43a.74.74,0,0,0,0-1.06L24.92,2.86a.75.75,0,0,0-1.06,0L13.74,13Zm15.15-4L25.84,5.9,13.73,18,7.26,11.53l1.45-1.45,4.5,4.5a.75.75,0,0,0,1.06,0Z" fill="currentColor"/><path d="M25.53,10.45a12,12,0,0,1,.47,3.3,12.28,12.28,0,1,1-5.17-10L21.9,2.7a13.73,13.73,0,1,0,5.6,11.05,13.57,13.57,0,0,0-.77-4.49Z" fill="currentColor"/></svg>