<svg xmlns="http://www.w3.org/2000/svg" xmlns:xlink="http://www.w3.org/1999/xlink" viewBox="0 0 27.69 27.69"><path d="M13.85,0A13.85,13.85,0,1,0,27.69,13.85,13.85,13.85,0,0,0,13.85,0m0,1.5a12.33,12.33,0,0,1,9.7,20,22.19,22.19,0,0,0-2.45-1.15l-.34-.14-2.93-1.25v-1a8.74,8.74,0,0,0,.54-.91l.25-.44a9.41,9.41,0,0,0,.83-1.79h0a3.36,3.36,0,0,0,.89-1.25,6.29,6.29,0,0,0,.24-2,1.48,1.48,0,0,0-.67-1.21c0-.37,0-.7-.06-1,0-2.45-1.83-5.09-5.8-5.09h-.13A6,6,0,0,0,9.45,5.94,4.91,4.91,0,0,0,8.13,9.27c0,.33-.05.68-.06,1.05a1.47,1.47,0,0,0-.67,1.21,6,6,0,0,0,.24,2,3.09,3.09,0,0,0,.9,1.25,8.58,8.58,0,0,0,.84,1.81l.24.43a8.74,8.74,0,0,0,.54.91v1l-.11,0-2.82,1.2-.35.14a17.5,17.5,0,0,0-2.64,1.28A12.34,12.34,0,0,1,13.85,1.5M5.27,22.71a21.87,21.87,0,0,1,2.19-1l.35-.15,2.83-1.2.49-.21a.76.76,0,0,0,.53-.72V17.65a.76.76,0,0,0-.14-.43,9.17,9.17,0,0,1-.58-.95c-.08-.16-.17-.31-.26-.47a6.69,6.69,0,0,1-.76-1.7.75.75,0,0,0-.43-.52A1.62,1.62,0,0,1,9.05,13a8.36,8.36,0,0,1-.22-1.37.72.72,0,0,0,.53-.23.73.73,0,0,0,.22-.54,12.3,12.3,0,0,1,0-1.49A3.54,3.54,0,0,1,10.54,7a4.5,4.5,0,0,1,3.39-1.22h.13c3.16,0,4.3,1.94,4.31,3.66a12.87,12.87,0,0,1,0,1.42.74.74,0,0,0,.18.54.66.66,0,0,0,.5.23A4.59,4.59,0,0,1,18.94,13a1.73,1.73,0,0,1-.45.61.73.73,0,0,0-.43.52,6.6,6.6,0,0,1-.75,1.7c-.09.16-.18.31-.26.47a9.17,9.17,0,0,1-.58.95.71.71,0,0,0-.14.43v1.77a.75.75,0,0,0,.46.69l.24.1,3.15,1.34.35.15c.62.26,1.4.58,2,.91a12.31,12.31,0,0,1-17.26.1" fill="currentColor"/></svg>