<svg xmlns="http://www.w3.org/2000/svg" xmlns:xlink="http://www.w3.org/1999/xlink" viewBox="0 0 30 21.08"><path d="M15.19,21.08c-3.37-.1-6.58-.19-9.78-.31a12,12,0,0,1-2.07-.29A3.44,3.44,0,0,1,.76,18.17a12.43,12.43,0,0,1-.59-3.08,61.08,61.08,0,0,1-.1-7.41A18.08,18.08,0,0,1,.53,3.53,4.32,4.32,0,0,1,1.68,1.35,3.82,3.82,0,0,1,4.1.31C6.63.19,9.15,0,11.68,0c3.4,0,6.81,0,10.21.08A40.64,40.64,0,0,1,26.3.38,3.45,3.45,0,0,1,29.16,2.6a10.4,10.4,0,0,1,.65,3.11,59.17,59.17,0,0,1,.1,8,16.53,16.53,0,0,1-.51,4,3.7,3.7,0,0,1-2.91,2.85,11.4,11.4,0,0,1-1.84.21l-9.46.3m-3.26-6.71L20,10.19,11.93,6Z" fill="currentColor"/></svg>