<svg xmlns="http://www.w3.org/2000/svg" xmlns:xlink="http://www.w3.org/1999/xlink" width="70.17" height="72.17" viewBox="0 0 70.17 72.17"><defs><clipPath id="a" transform="translate(0 0)"><rect width="70.17" height="72.17" fill="none"/></clipPath></defs><g clip-path="url(#a)"><path d="M35.08,27.59a9.5,9.5,0,1,0,9.5,9.49,9.49,9.49,0,0,0-9.5-9.49m0,17a7.5,7.5,0,1,1,7.5-7.5,7.5,7.5,0,0,1-7.5,7.5" transform="translate(0 0)" fill="#ccddec"/><path d="M69.17,36.08h-4a30,30,0,0,0-29-29V3a1,1,0,0,0-2,0V7.05a30,30,0,0,0-29,29H1a1,1,0,0,0,0,2H5.05a30,30,0,0,0,29,29v4a1,1,0,0,0,2,0v-4a30,30,0,0,0,29-29h4a1,1,0,0,0,0-2m-6.05,0H54.34A19.27,19.27,0,0,0,36.08,17.82V9.05a28.08,28.08,0,0,1,27,27m-17,1c0,.33,0,.67,0,1h6.31A17.29,17.29,0,0,1,36.08,54.34V48c-.33,0-.66,0-1,0s-.67,0-1,0v6.31A17.31,17.31,0,0,1,17.82,38.08h6.31c0-.32,0-.66,0-1s0-.68,0-1H17.82A17.33,17.33,0,0,1,34.08,19.82v6.32c.33,0,.67-.05,1-.05s.67,0,1,.05V19.82A17.31,17.31,0,0,1,52.34,36.08H46c0,.33,0,.67,0,1m-12-28v8.77A19.29,19.29,0,0,0,15.82,36.08H7.05a28.07,28.07,0,0,1,27-27m-27,29h8.77A19.29,19.29,0,0,0,34.08,56.35v8.77a28.08,28.08,0,0,1-27-27m29,27V56.35A19.28,19.28,0,0,0,54.34,38.08h8.78a28.09,28.09,0,0,1-27,27" transform="translate(0 0)" fill="#ccddec"/><path d="M35.08,25.59a9.5,9.5,0,1,0,9.5,9.49,9.49,9.49,0,0,0-9.5-9.49m0,17a7.5,7.5,0,1,1,7.5-7.5,7.5,7.5,0,0,1-7.5,7.5" transform="translate(0 0)" fill="#568ebf"/><path d="M69.17,34.08h-4a30,30,0,0,0-29-29V1a1,1,0,0,0-2,0V5.05a30,30,0,0,0-29,29H1a1,1,0,0,0,0,2H5.05a30,30,0,0,0,29,29v4a1,1,0,0,0,2,0v-4a30,30,0,0,0,29-29h4a1,1,0,0,0,0-2m-6.05,0H54.34A19.27,19.27,0,0,0,36.08,15.82V7.05a28.08,28.08,0,0,1,27,27m-17,1c0,.33,0,.67,0,1h6.31A17.29,17.29,0,0,1,36.08,52.34V46c-.33,0-.66,0-1,0s-.67,0-1,0v6.31A17.31,17.31,0,0,1,17.82,36.08h6.31c0-.32,0-.66,0-1s0-.68,0-1H17.82A17.33,17.33,0,0,1,34.08,17.82v6.32c.33,0,.67-.05,1-.05s.67,0,1,.05V17.82A17.31,17.31,0,0,1,52.34,34.08H46c0,.33,0,.67,0,1m-12-28v8.77A19.29,19.29,0,0,0,15.82,34.08H7.05a28.07,28.07,0,0,1,27-27m-27,29h8.77A19.29,19.29,0,0,0,34.08,54.35v8.77a28.08,28.08,0,0,1-27-27m29,27V54.35A19.28,19.28,0,0,0,54.34,36.08h8.78a28.09,28.09,0,0,1-27,27" transform="translate(0 0)" fill="#568ebf"/></g></svg>