<svg xmlns="http://www.w3.org/2000/svg" xmlns:xlink="http://www.w3.org/1999/xlink" width="66.15" height="72.17" viewBox="0 0 66.15 72.17"><defs><clipPath id="a" transform="translate(0 0)"><rect width="66.15" height="72.17" fill="none"/></clipPath></defs><g clip-path="url(#a)"><path d="M25.5,33a1,1,0,0,0,1-1V24.8a1,1,0,1,0-2,0V32a1,1,0,0,0,1,1" transform="translate(0 0)" fill="#ccddec"/><path d="M24.32,53.15h0a1,1,0,0,0-1,1c0,.19,0,4.83-4.38,5.44a1,1,0,0,0-.85,1.13,1,1,0,0,0,1,.86h.14c4.87-.69,6.12-5.16,6.1-7.43a1,1,0,0,0-1-1" transform="translate(0 0)" fill="#ccddec"/><path d="M54.82,17.65c-1.72-.79-6.47-2.65-8.48-3.42A1,1,0,0,1,45.75,13a11.54,11.54,0,0,0,.38-3.9,4.71,4.71,0,0,0-2.26-4A21.87,21.87,0,0,0,33.18,2a20.5,20.5,0,0,0-11,3.12l0,0-.49.35a1.2,1.2,0,0,0-.11.12A5.22,5.22,0,0,0,20,9.11a11,11,0,0,0,.38,3.9,1,1,0,0,1-.6,1.22c-2,.77-6.75,2.63-8.48,3.42C8.69,18.87,0,27.55,0,34.54c0,3.18,1.29,14.86,1.6,17.6v1.72A3.1,3.1,0,0,0,4.7,57H6.62a3.1,3.1,0,0,0,3.1-3.1V52.61a.41.41,0,0,1,0-.11c.22-1.86,1.82-15,1.9-15.9s.59-1.25,1.08-1.25a2.42,2.42,0,0,1,1,.29l-.11,30.75a1,1,0,0,0,1,1h0a1,1,0,0,1,1,1v.68a3.1,3.1,0,0,0,3.1,3.1H47.42a3.1,3.1,0,0,0,3.1-3.1v-.68a1,1,0,0,1,1-1,1,1,0,0,0,1-1L52.4,35.64a2,2,0,0,1,1-.29c.47,0,1,.26,1.18,1.25.17.84,1.68,14,1.9,15.89v1.37a3.1,3.1,0,0,0,3.1,3.1h1.92a3.1,3.1,0,0,0,3.1-3.1V52.24a.31.31,0,0,1,0-.1c.3-2.74,1.6-14.42,1.6-17.6,0-7-8.69-15.67-11.34-16.89M44.13,9.24A8.33,8.33,0,0,1,43.65,13l-.82,1.59a.64.64,0,0,1-.08.14l-1,1.39a1,1,0,0,0,.21,1.4,1,1,0,0,0,1.4-.21l1.18-1.61.2.08s2.45.94,4.87,1.91a1,1,0,0,1,.34,1.63,8.87,8.87,0,0,0-2.38,4.84,12.47,12.47,0,0,0,1.68,9.34,1,1,0,0,1-.44,1.48L35.47,40.55a1,1,0,0,1-1.39-.92V20.7a1,1,0,0,1,.5-.86,3,3,0,0,0,1.49-2.39,1,1,0,0,0,0-.38l-.94-2.82a3.94,3.94,0,0,0-.74-1.46.94.94,0,0,1-.26-.61V11.7a1,1,0,0,1,.9-1,15.91,15.91,0,0,0,5.33-1.3A12.84,12.84,0,0,0,42.45,8.1a1,1,0,0,1,1.61.56,3.41,3.41,0,0,1,.07.58M34.05,17.49a1,1,0,0,1-1,.77,1,1,0,0,1-1-.77L33,14.88c0-.12.08-.22.11-.3,0,.08.06.18.1.3ZM33.18,4A18.87,18.87,0,0,1,40,5.41a1,1,0,0,1,.15,1.8l-.76.41a16.87,16.87,0,0,1-6.31,1.19h-.06a16.83,16.83,0,0,1-6.31-1.19l-.84-.45a1,1,0,0,1,.15-1.8A19.15,19.15,0,0,1,33.18,4M21.45,15.74l.19-.07,1.19,1.6a1,1,0,0,0,1.61-1.19l-1-1.39a.67.67,0,0,1-.09-.14L22.53,13l0,0A8.44,8.44,0,0,1,22,9.24a4.85,4.85,0,0,1,.07-.58A1,1,0,0,1,23.7,8.1a13.41,13.41,0,0,0,2.15,1.31,15.91,15.91,0,0,0,5.32,1.3,1,1,0,0,1,.91,1v.47a.89.89,0,0,1-.26.59,4.51,4.51,0,0,0-.75,1.49l-.93,2.82a.82.82,0,0,0-.06.38,3,3,0,0,0,1.49,2.39,1,1,0,0,1,.51.86V39.77a1,1,0,0,1-1.39.92L17.3,35.05a1,1,0,0,1-.43-1.49,12.5,12.5,0,0,0,1.75-9.44,9,9,0,0,0-2.38-4.84,1,1,0,0,1,.33-1.63c2.43-1,4.83-1.89,4.88-1.91M7.72,53.86A1.1,1.1,0,0,1,6.62,55H4.7a1.11,1.11,0,0,1-1.1-1.1v-.14a1,1,0,0,1,1-1H6.72a1,1,0,0,1,1,1Zm6.9-20.66a1,1,0,0,1-1,.27,3.81,3.81,0,0,0-.93-.12,3.06,3.06,0,0,0-3.08,3.07C9.58,37,8.71,44.27,8.1,49.3a1,1,0,0,1-1,.88H4.29a1,1,0,0,1-1-.89C2.81,44.82,2,37,2,34.54c0-6,8-14.09,10.17-15.07l.58-.26a6.86,6.86,0,0,1,3.9,5.24c.81,4.91-1,7.67-2,8.75m1,31.19.1-26.32a1,1,0,0,1,1.39-.92l14.33,6a1,1,0,0,1,.62.92V64.39a1,1,0,0,1-1,1H16.64a1,1,0,0,1-1-1m15.44,5.78H18.74a1.1,1.1,0,0,1-1.1-1.1v-.68a1,1,0,0,1,1-1H31.08a1,1,0,0,1,1,1v.78a1,1,0,0,1-1,1m17.44-1.1a1.1,1.1,0,0,1-1.1,1.1H35.08a1,1,0,0,1-1-1v-.78a1,1,0,0,1,1-1H47.52a1,1,0,0,1,1,1ZM34.08,64.39V44a1,1,0,0,1,.61-.92L49,37a1,1,0,0,1,1.39.92l.1,26.46a1,1,0,0,1-1,1H35.08a1,1,0,0,1-1-1M62.55,53.86a1.1,1.1,0,0,1-1.1,1.1H59.53a1.11,1.11,0,0,1-1.1-1.1v-.14a1,1,0,0,1,1-1h2.12a1,1,0,0,1,1,1Zm-.69-3.68H59.07a1,1,0,0,1-1-.89c-.56-4.89-1.43-12.37-1.58-13.09a3.22,3.22,0,0,0-3.14-2.85,3.65,3.65,0,0,0-.84.1,1,1,0,0,1-1-.28c-1-1.1-2.81-3.85-2-8.72a6.84,6.84,0,0,1,3.89-5.24l.59.26c2.12,1,10.17,9.09,10.17,15.07,0,2.44-.82,10.28-1.3,14.75a1,1,0,0,1-1,.89" transform="translate(0 0)" fill="#ccddec"/><path d="M39.65,24.8V32a1,1,0,0,0,2,0V24.8a1,1,0,0,0-2,0" transform="translate(0 0)" fill="#ccddec"/><path d="M47.22,59.59c-4.34-.61-4.39-5.24-4.39-5.44a1,1,0,0,0-1-1,1,1,0,0,0-1,1c0,2.27,1.24,6.74,6.11,7.43h.14a1,1,0,0,0,.14-2" transform="translate(0 0)" fill="#ccddec"/><path d="M25.5,31a1,1,0,0,0,1-1V22.8a1,1,0,1,0-2,0V30a1,1,0,0,0,1,1" transform="translate(0 0)" fill="#568ebf"/><path d="M24.32,51.15h0a1,1,0,0,0-1,1c0,.19,0,4.83-4.38,5.44a1,1,0,0,0-.85,1.13,1,1,0,0,0,1,.86h.14c4.87-.69,6.12-5.16,6.1-7.43a1,1,0,0,0-1-1" transform="translate(0 0)" fill="#568ebf"/><path d="M54.82,15.65c-1.72-.79-6.47-2.65-8.48-3.42A1,1,0,0,1,45.75,11a11.54,11.54,0,0,0,.38-3.9,4.71,4.71,0,0,0-2.26-4A21.87,21.87,0,0,0,33.18,0a20.5,20.5,0,0,0-11,3.12.05.05,0,0,1,0,0l-.49.35a1.2,1.2,0,0,0-.11.12A5.22,5.22,0,0,0,20,7.11a11,11,0,0,0,.38,3.9,1,1,0,0,1-.6,1.22c-2,.77-6.75,2.63-8.48,3.42C8.69,16.87,0,25.55,0,32.54c0,3.18,1.29,14.86,1.6,17.6v1.72A3.1,3.1,0,0,0,4.7,55H6.62a3.1,3.1,0,0,0,3.1-3.1V50.61a.41.41,0,0,1,0-.11c.22-1.86,1.82-15,1.9-15.9s.59-1.25,1.08-1.25a2.42,2.42,0,0,1,1,.29l-.11,30.75a1,1,0,0,0,1,1h0a1,1,0,0,1,1,1v.68a3.1,3.1,0,0,0,3.1,3.1H47.42a3.1,3.1,0,0,0,3.1-3.1v-.68a1,1,0,0,1,1-1,1,1,0,0,0,1-1L52.4,33.64a2,2,0,0,1,1-.29c.47,0,1,.26,1.18,1.25.17.84,1.68,14,1.9,15.89v1.37a3.1,3.1,0,0,0,3.1,3.1h1.92a3.1,3.1,0,0,0,3.1-3.1V50.24a.31.31,0,0,1,0-.1c.3-2.74,1.6-14.42,1.6-17.6,0-7-8.69-15.67-11.34-16.89M44.13,7.24A8.33,8.33,0,0,1,43.65,11l-.82,1.59a.64.64,0,0,1-.08.14l-1,1.39a1,1,0,0,0,.21,1.4,1,1,0,0,0,1.4-.21l1.18-1.61.2.08s2.45.94,4.87,1.91a1,1,0,0,1,.34,1.63,8.87,8.87,0,0,0-2.38,4.84,12.47,12.47,0,0,0,1.68,9.34,1,1,0,0,1-.44,1.48L35.47,38.55a1,1,0,0,1-1.39-.92V18.7a1,1,0,0,1,.5-.86,3,3,0,0,0,1.49-2.39,1,1,0,0,0,0-.38l-.94-2.82a3.94,3.94,0,0,0-.74-1.46.94.94,0,0,1-.26-.61V9.7a1,1,0,0,1,.9-1,15.91,15.91,0,0,0,5.33-1.3A12.84,12.84,0,0,0,42.45,6.1a1,1,0,0,1,1.61.56,3.41,3.41,0,0,1,.07.58M34.05,15.49a1,1,0,0,1-1,.77,1,1,0,0,1-1-.77L33,12.88c0-.12.08-.22.11-.3,0,.08.06.18.1.3ZM33.18,2A18.87,18.87,0,0,1,40,3.41a1,1,0,0,1,.15,1.8l-.76.41a16.87,16.87,0,0,1-6.31,1.19.06.06,0,0,1-.06,0,16.83,16.83,0,0,1-6.31-1.19l-.84-.45a1,1,0,0,1,.15-1.8A19.15,19.15,0,0,1,33.18,2M21.45,13.74l.19-.07,1.19,1.6a1,1,0,0,0,1.61-1.19l-1-1.39a.67.67,0,0,1-.09-.14L22.53,11l0,0A8.44,8.44,0,0,1,22,7.24a4.85,4.85,0,0,1,.07-.58A1,1,0,0,1,23.7,6.1a13.41,13.41,0,0,0,2.15,1.31,15.91,15.91,0,0,0,5.32,1.3,1,1,0,0,1,.91,1v.47a.89.89,0,0,1-.26.59,4.51,4.51,0,0,0-.75,1.49l-.93,2.82a.82.82,0,0,0-.06.38,3,3,0,0,0,1.49,2.39,1,1,0,0,1,.51.86V37.77a1,1,0,0,1-1.39.92L17.3,33.05a1,1,0,0,1-.43-1.49,12.5,12.5,0,0,0,1.75-9.44,9,9,0,0,0-2.38-4.84,1,1,0,0,1,.33-1.63c2.43-1,4.83-1.89,4.88-1.91M7.72,51.86A1.1,1.1,0,0,1,6.62,53H4.7a1.11,1.11,0,0,1-1.1-1.1v-.14a1,1,0,0,1,1-1H6.72a1,1,0,0,1,1,1Zm6.9-20.66a1,1,0,0,1-1,.27,3.81,3.81,0,0,0-.93-.12,3.06,3.06,0,0,0-3.08,3.07C9.58,35,8.71,42.27,8.1,47.3a1,1,0,0,1-1,.88H4.29a1,1,0,0,1-1-.89C2.81,42.82,2,35,2,32.54c0-6,8-14.09,10.17-15.07l.58-.26a6.86,6.86,0,0,1,3.9,5.24c.81,4.91-1,7.67-2,8.75m1,31.19.1-26.32a1,1,0,0,1,1.39-.92l14.33,6a1,1,0,0,1,.62.92V62.39a1,1,0,0,1-1,1H16.64a1,1,0,0,1-1-1m15.44,5.78H18.74a1.1,1.1,0,0,1-1.1-1.1v-.68a1,1,0,0,1,1-1H31.08a1,1,0,0,1,1,1v.78a1,1,0,0,1-1,1m17.44-1.1a1.1,1.1,0,0,1-1.1,1.1H35.08a1,1,0,0,1-1-1v-.78a1,1,0,0,1,1-1H47.52a1,1,0,0,1,1,1ZM34.08,62.39V42a1,1,0,0,1,.61-.92L49,35a1,1,0,0,1,1.39.92l.1,26.46a1,1,0,0,1-1,1H35.08a1,1,0,0,1-1-1M62.55,51.86a1.1,1.1,0,0,1-1.1,1.1H59.53a1.11,1.11,0,0,1-1.1-1.1v-.14a1,1,0,0,1,1-1h2.12a1,1,0,0,1,1,1Zm-.69-3.68H59.07a1,1,0,0,1-1-.89c-.56-4.89-1.43-12.37-1.58-13.09a3.22,3.22,0,0,0-3.14-2.85,3.65,3.65,0,0,0-.84.1,1,1,0,0,1-1-.28c-1-1.1-2.81-3.85-2-8.72a6.84,6.84,0,0,1,3.89-5.24l.59.26c2.12,1,10.17,9.09,10.17,15.07,0,2.44-.82,10.28-1.3,14.75a1,1,0,0,1-1,.89" transform="translate(0 0)" fill="#568ebf"/><path d="M39.65,22.8V30a1,1,0,1,0,2,0V22.8a1,1,0,0,0-2,0" transform="translate(0 0)" fill="#568ebf"/><path d="M47.22,57.59c-4.34-.61-4.39-5.24-4.39-5.44a1,1,0,0,0-1-1,1,1,0,0,0-1,1c0,2.27,1.24,6.74,6.11,7.43h.14a1,1,0,0,0,.14-2" transform="translate(0 0)" fill="#568ebf"/></g></svg>