<svg xmlns="http://www.w3.org/2000/svg" xmlns:xlink="http://www.w3.org/1999/xlink" width="92.9" height="71.36" viewBox="0 0 92.9 71.36"><defs><clipPath id="a" transform="translate(0 0)"><rect width="92.9" height="71.36" fill="none"/></clipPath></defs><g clip-path="url(#a)"><path d="M91.05,55.45c-2.73-2.6-6.79-5.13-16.11-8.05-3-1-6.13-1.69-7.53-2a1.05,1.05,0,0,1-.82-1c-.12-3.58-.57-17.8,0-20.4.65-3,2.5-6.11,3.54-10.4a29.52,29.52,0,0,0,.22-9.42,1.06,1.06,0,0,0-.77-.9L64.86,2a1,1,0,0,0-.82.11A10.33,10.33,0,0,1,59,3.68h-.44c-.56,0-1.23-.07-2-.07-3.1,0-7.18.65-8,4.81-.52,2.51-3.66,3.94-9.09,6.45l-.22.08-4.14.9a1.06,1.06,0,0,1-1.29-1.09c.17-2.63-.28-6.55-4.05-8.21a6.47,6.47,0,0,0-6,0,8,8,0,0,0-3,3.23,1.05,1.05,0,0,1-1.24.49L14.7,8.67a1,1,0,0,0-1,.18L7.15,14.1a1,1,0,0,0-.34.5L.05,35.21a1.05,1.05,0,0,0,.68,1.33l20.05,6.58a1.06,1.06,0,0,0,1.34-.68l6.82-20.58a1.09,1.09,0,0,0,0-.62L26.7,13.1a1,1,0,0,0-.69-.72l-2.46-.81A1.06,1.06,0,0,1,23,10a5.35,5.35,0,0,1,1.74-1.68,4.48,4.48,0,0,1,4.19.1c3.79,1.66,2.82,7.11,2.58,8.23h-.06l-.31,2.52a.3.3,0,0,1,0,.1c-.12.55-1.34,6.17,0,10.61,1.42,4.68.58,14.27-.07,17.25s-1.8,6.31-2.34,9.94.79,12.61,1.17,13.65c.2.54,5.87.67,11.26.67,3.74,0,7.36-.06,8.92-.09a1.06,1.06,0,0,0,1-.7c.32-.87,1.27-2.28,4.09-2.68a8.57,8.57,0,0,1,1.13-.07c2.44,0,4.82,1,5.27,1.8.26.45.52.87.72,1.16a1.06,1.06,0,0,0,.88.47h24a1.06,1.06,0,0,0,.31,0,7,7,0,0,0,4.39-3.79c1.17-3,2-9.36-.78-12m-66-40.78,1.8,6.52a1.06,1.06,0,0,1,0,.61l-6,18.12a1,1,0,0,1-1.33.67L3.25,35.27a1.06,1.06,0,0,1-.67-1.34L8.52,15.79a1.11,1.11,0,0,1,.35-.5l5.25-4.2a1.07,1.07,0,0,1,1-.18l3.57,1.17a1.05,1.05,0,0,1,.69,1.27,17.31,17.31,0,0,0-.42,2,1,1,0,0,0,2,.27,14.13,14.13,0,0,1,.3-1.46,1.07,1.07,0,0,1,1.36-.75l1.78.59a1,1,0,0,1,.69.72m5.66,42.66c0-.26.09-.53.13-.8a1.08,1.08,0,0,1,1.08-.89l.94,0c2.79.11,7.8.31,13,.31,3.6,0,7.31-.1,10.47-.38A64.85,64.85,0,0,0,76.5,50.15a1.27,1.27,0,0,0,.12-.1,53.65,53.65,0,0,1,8.6,3.64,1.05,1.05,0,0,1-.2,1.93c-5.33,1.66-16.24,4.64-25.71,4.62-9.26,0-25.44-1.81-28.66-2.17,0-.27,0-.52.07-.74m9-40.47.21,0,.2-.09.18-.09c5.87-2.71,9.42-4.34,10.14-7.82.31-1.5,1.28-3.22,6.08-3.22.66,0,1.27,0,1.84.07H59a11.87,11.87,0,0,0,5.39-1.41,1.11,1.11,0,0,1,.78-.09l.07,0a1.06,1.06,0,0,1,.1,2,19.67,19.67,0,0,1-4.55,1.28l-.53,0c-.84,0-1.78-.11-2.74-.11A5,5,0,0,0,52.18,11c-1,2.67-4.22,4.4-9.67,6.91l-.19.07L33,20.29c.07-.38.13-.62.13-.63l0-.11v-.11l.14-1.16ZM32.14,51.08c.33-1.23.65-2.39.9-3.55.64-3,1.62-13,0-18.26a17,17,0,0,1-.48-6,1,1,0,0,1,.8-1L42.9,20l.2-.05.18-.08c5.72-2.65,9.57-4.64,10.84-8.12.7-1.94,1.69-2.29,3.37-2.29.44,0,.9,0,1.34,0s.93.05,1.4.05c.23,0,.46,0,.68,0a26.08,26.08,0,0,0,6.28-1.85,1.05,1.05,0,0,1,1.44,1,19.58,19.58,0,0,1-.45,4.48,40.13,40.13,0,0,1-1.93,5.68,30.78,30.78,0,0,0-1.62,4.76c0,.08,0,.17,0,.27a1.05,1.05,0,0,1-1.47.78c-2.71-1.22-7.22-3.22-8-3.37a1.26,1.26,0,0,0-1.21.52c-1,1.32-1.43,8.5-.8,9.8a1.2,1.2,0,0,0,.76.63,1.18,1.18,0,0,0,.34,0c1.25,0,4.13-1.33,8.55-3.94a1.06,1.06,0,0,1,1.6.91c0,1.89,0,4,0,6.12a1,1,0,0,1-1.33,1c-2.86-.77-7.82-2.08-8.67-2.1a1.3,1.3,0,0,0-1.12.7c-.78,1.47-.06,8.62.77,9.81a1.2,1.2,0,0,0,.85.5H55c1.1,0,3.72-1.71,7.78-5.06a1.06,1.06,0,0,1,1.73.79c.06,1.95.11,3.5.14,4.28l0,.73a1.06,1.06,0,0,0,.84,1l.72.15s2,.42,4.52,1.09a1.05,1.05,0,0,1,.09,2,60.82,60.82,0,0,1-14.63,3.34c-7.61.67-18.57.25-23.24.06l-1.47,0q.32-1.29.66-2.55M60.27,27.4c-1.49.84-2.91,1.6-4,2.13a1.05,1.05,0,0,1-1.5-1,35.92,35.92,0,0,1,.28-3.8,1.06,1.06,0,0,1,1.46-.83c1,.41,2.28,1,3.68,1.59a1.06,1.06,0,0,1,.09,1.89m.19,12.11c-1.34,1.06-2.62,2-3.63,2.73a1.06,1.06,0,0,1-1.64-.72c-.16-1.2-.29-2.65-.32-3.8a1.05,1.05,0,0,1,1.31-1c1,.25,2.4.59,3.89,1a1.06,1.06,0,0,1,.39,1.85M90,66.68a4.87,4.87,0,0,1-2.78,2.49,1.1,1.1,0,0,1-.4.08H63.66c-.12-.19-.24-.4-.37-.63-1-1.75-4.35-2.8-7-2.8a10.62,10.62,0,0,0-1.4.09,7,7,0,0,0-5.2,2.93,1,1,0,0,1-.84.45c-1.84,0-4.73.07-7.67.07-4.75,0-7.34-.1-8.75-.21a1,1,0,0,1-1-.87c-.28-1.78-.63-4.52-.77-7a1,1,0,0,1,1.16-1.11c5.15.56,19.07,2,27.45,2h.21c13.33,0,28.81-5.58,29.47-5.82,0,0,.06,0,.1-.06l.59.54c1.81,1.72,1.37,7,.3,9.78" transform="translate(0 0)" fill="#ccddec"/><path d="M35.75,35.92A1,1,0,0,0,36.62,37h.12a1,1,0,0,0,1-.88c0-.15.42-3.77-1.3-10.45A1,1,0,0,0,35.21,25a1,1,0,0,0-.72,1.21c1.61,6.28,1.26,9.69,1.26,9.72" transform="translate(0 0)" fill="#ccddec"/><path d="M36.86,40.55a1,1,0,0,0-1.07.92,61.84,61.84,0,0,1-1.31,8.23,1,1,0,0,0,.74,1.2,1,1,0,0,0,.24,0,1,1,0,0,0,1-.77,61.19,61.19,0,0,0,1.35-8.54,1,1,0,0,0-.92-1.07" transform="translate(0 0)" fill="#ccddec"/><path d="M11.41,26.55a2.88,2.88,0,0,0,.87.14,3,3,0,0,0,1.58-.46,3.53,3.53,0,0,0,1.55-2A3.27,3.27,0,0,0,13.55,20a3.27,3.27,0,0,0-4,2.3,3.28,3.28,0,0,0,1.86,4.23m0-3.61a1.42,1.42,0,0,1,1.22-1.06.78.78,0,0,1,.26,0,1.3,1.3,0,0,1,.58,1.7,1.63,1.63,0,0,1-.68.91,1,1,0,0,1-.8.12,1.31,1.31,0,0,1-.58-1.71" transform="translate(0 0)" fill="#ccddec"/><path d="M18.51,29.3a3.46,3.46,0,0,0-2.14,6.54,2.91,2.91,0,0,0,.87.13,3.4,3.4,0,0,0,3.13-2.44,3.28,3.28,0,0,0-1.86-4.23m0,3.61a1.31,1.31,0,0,1-1.48,1,1.31,1.31,0,0,1-.59-1.7,1.46,1.46,0,0,1,1.23-1.07,1.17,1.17,0,0,1,.26,0,1.33,1.33,0,0,1,.58,1.71" transform="translate(0 0)" fill="#ccddec"/><path d="M20.4,23.17,8.65,30.7a1,1,0,0,0-.3,1.38,1,1,0,0,0,.84.46,1,1,0,0,0,.54-.16l11.75-7.52a1,1,0,0,0-1.08-1.69" transform="translate(0 0)" fill="#ccddec"/><path d="M91.05,53.45c-2.73-2.6-6.79-5.13-16.11-8.05-3-1-6.13-1.69-7.53-2a1.05,1.05,0,0,1-.82-1c-.12-3.58-.57-17.8,0-20.4.65-3,2.5-6.11,3.54-10.4a29.52,29.52,0,0,0,.22-9.42,1.06,1.06,0,0,0-.77-.9L64.86,0A1,1,0,0,0,64,.15,10.33,10.33,0,0,1,59,1.68h-.44c-.56,0-1.23-.07-2-.07-3.1,0-7.18.65-8,4.81-.52,2.51-3.66,3.94-9.09,6.45l-.22.08-4.14.9a1.06,1.06,0,0,1-1.29-1.09c.17-2.63-.28-6.55-4.05-8.21a6.47,6.47,0,0,0-6,0,8,8,0,0,0-3,3.23,1.05,1.05,0,0,1-1.24.49L14.7,6.67a1,1,0,0,0-1,.18L7.15,12.1a1,1,0,0,0-.34.5L.05,33.21a1.05,1.05,0,0,0,.68,1.33l20.05,6.58a1.06,1.06,0,0,0,1.34-.68l6.82-20.58a1.09,1.09,0,0,0,0-.62L26.7,11.1a1,1,0,0,0-.69-.72l-2.46-.81A1.06,1.06,0,0,1,23,8a5.35,5.35,0,0,1,1.74-1.68,4.48,4.48,0,0,1,4.19.1c3.79,1.66,2.82,7.11,2.58,8.23h-.06l-.31,2.52a.3.3,0,0,1,0,.1c-.12.55-1.34,6.17,0,10.61,1.42,4.68.58,14.27-.07,17.25s-1.8,6.31-2.34,9.94.79,12.61,1.17,13.65c.2.54,5.87.67,11.26.67,3.74,0,7.36-.06,8.92-.09a1.06,1.06,0,0,0,1-.7c.32-.87,1.27-2.28,4.09-2.68a8.57,8.57,0,0,1,1.13-.07c2.44,0,4.82,1,5.27,1.8.26.45.52.87.72,1.16a1.06,1.06,0,0,0,.88.47h24a1.06,1.06,0,0,0,.31,0,7,7,0,0,0,4.39-3.79c1.17-3,2-9.36-.78-12m-66-40.78,1.8,6.52a1.06,1.06,0,0,1,0,.61l-6,18.12a1,1,0,0,1-1.33.67L3.25,33.27a1.06,1.06,0,0,1-.67-1.34L8.52,13.79a1.11,1.11,0,0,1,.35-.5l5.25-4.2a1.07,1.07,0,0,1,1-.18l3.57,1.17a1.05,1.05,0,0,1,.69,1.27,17.31,17.31,0,0,0-.42,2,1,1,0,0,0,2,.27,14.13,14.13,0,0,1,.3-1.46,1.07,1.07,0,0,1,1.36-.75l1.78.59a1,1,0,0,1,.69.72m5.66,42.66c0-.26.09-.53.13-.8a1.08,1.08,0,0,1,1.08-.89l.94,0c2.79.11,7.8.31,13,.31,3.6,0,7.31-.1,10.47-.38A64.85,64.85,0,0,0,76.5,48.15a1.27,1.27,0,0,0,.12-.1,53.65,53.65,0,0,1,8.6,3.64,1.05,1.05,0,0,1-.2,1.93c-5.33,1.66-16.24,4.64-25.71,4.62-9.26,0-25.44-1.81-28.66-2.17,0-.27,0-.52.07-.74m9-40.47.21,0,.2-.09.18-.09c5.87-2.71,9.42-4.34,10.14-7.82.31-1.5,1.28-3.22,6.08-3.22.66,0,1.27,0,1.84.07H59a11.87,11.87,0,0,0,5.39-1.41,1.11,1.11,0,0,1,.78-.09l.07,0a1.06,1.06,0,0,1,.1,2,19.67,19.67,0,0,1-4.55,1.28l-.53,0c-.84,0-1.78-.11-2.74-.11A5,5,0,0,0,52.18,9c-1,2.67-4.22,4.4-9.67,6.91l-.19.07L33,18.29c.07-.38.13-.62.13-.63l0-.11v-.11l.14-1.16ZM32.14,49.08c.33-1.23.65-2.39.9-3.55.64-3,1.62-13,0-18.26a17,17,0,0,1-.48-6,1,1,0,0,1,.8-1L42.9,18l.2-.05.18-.08c5.72-2.65,9.57-4.64,10.84-8.12.7-1.94,1.69-2.29,3.37-2.29.44,0,.9,0,1.34,0s.93,0,1.4,0c.23,0,.46,0,.68,0a26.08,26.08,0,0,0,6.28-1.85,1.05,1.05,0,0,1,1.44,1,19.58,19.58,0,0,1-.45,4.48,40.13,40.13,0,0,1-1.93,5.68,30.78,30.78,0,0,0-1.62,4.76c0,.08,0,.17,0,.27a1.05,1.05,0,0,1-1.47.78c-2.71-1.22-7.22-3.22-8-3.37a1.26,1.26,0,0,0-1.21.52c-1,1.32-1.43,8.5-.8,9.8a1.2,1.2,0,0,0,.76.63,1.18,1.18,0,0,0,.34,0c1.25,0,4.13-1.33,8.55-3.94a1.06,1.06,0,0,1,1.6.91c0,1.89,0,4,0,6.12a1,1,0,0,1-1.33,1c-2.86-.77-7.82-2.08-8.67-2.1a1.3,1.3,0,0,0-1.12.7c-.78,1.47-.06,8.62.77,9.81a1.2,1.2,0,0,0,.85.5H55c1.1,0,3.72-1.71,7.78-5.06a1.06,1.06,0,0,1,1.73.79c.06,1.95.11,3.5.14,4.28l0,.73a1.06,1.06,0,0,0,.84,1l.72.15s2,.42,4.52,1.09a1.05,1.05,0,0,1,.09,2,60.82,60.82,0,0,1-14.63,3.34c-7.61.67-18.57.25-23.24.06l-1.47,0q.32-1.29.66-2.55M60.27,25.4c-1.49.84-2.91,1.6-4,2.13a1.05,1.05,0,0,1-1.5-1,35.92,35.92,0,0,1,.28-3.8,1.06,1.06,0,0,1,1.46-.83c1,.41,2.28,1,3.68,1.59a1.06,1.06,0,0,1,.09,1.89m.19,12.11c-1.34,1.06-2.62,2-3.63,2.73a1.06,1.06,0,0,1-1.64-.72c-.16-1.2-.29-2.65-.32-3.8a1.05,1.05,0,0,1,1.31-1c1,.25,2.4.59,3.89,1a1.06,1.06,0,0,1,.39,1.85M90,64.68a4.87,4.87,0,0,1-2.78,2.49,1.1,1.1,0,0,1-.4.08H63.66c-.12-.19-.24-.4-.37-.63-1-1.75-4.35-2.8-7-2.8a10.62,10.62,0,0,0-1.4.09,7,7,0,0,0-5.2,2.93,1,1,0,0,1-.84.45c-1.84,0-4.73.07-7.67.07-4.75,0-7.34-.1-8.75-.21a1,1,0,0,1-1-.87c-.28-1.78-.63-4.52-.77-7a1,1,0,0,1,1.16-1.11c5.15.56,19.07,2,27.45,2h.21c13.33,0,28.81-5.58,29.47-5.82,0,0,.06,0,.1-.06l.59.54c1.81,1.72,1.37,7,.3,9.78" transform="translate(0 0)" fill="#568ebf"/><path d="M35.75,33.92A1,1,0,0,0,36.62,35h.12a1,1,0,0,0,1-.88c0-.15.42-3.77-1.3-10.45A1,1,0,0,0,35.21,23a1,1,0,0,0-.72,1.21c1.61,6.28,1.26,9.69,1.26,9.72" transform="translate(0 0)" fill="#568ebf"/><path d="M36.86,38.55a1,1,0,0,0-1.07.92,61.84,61.84,0,0,1-1.31,8.23,1,1,0,0,0,.74,1.2,1,1,0,0,0,.24,0,1,1,0,0,0,1-.77,61.19,61.19,0,0,0,1.35-8.54,1,1,0,0,0-.92-1.07" transform="translate(0 0)" fill="#568ebf"/><path d="M11.41,24.55a2.88,2.88,0,0,0,.87.14,3,3,0,0,0,1.58-.46,3.53,3.53,0,0,0,1.55-2A3.27,3.27,0,0,0,13.55,18a3.27,3.27,0,0,0-4,2.3,3.28,3.28,0,0,0,1.86,4.23m0-3.61a1.42,1.42,0,0,1,1.22-1.06.78.78,0,0,1,.26,0,1.3,1.3,0,0,1,.58,1.7,1.63,1.63,0,0,1-.68.91,1,1,0,0,1-.8.12,1.31,1.31,0,0,1-.58-1.71" transform="translate(0 0)" fill="#568ebf"/><path d="M18.51,27.3a3.46,3.46,0,0,0-2.14,6.54,2.91,2.91,0,0,0,.87.13,3.4,3.4,0,0,0,3.13-2.44,3.28,3.28,0,0,0-1.86-4.23m0,3.61a1.31,1.31,0,0,1-1.48,1,1.31,1.31,0,0,1-.59-1.7,1.46,1.46,0,0,1,1.23-1.07,1.17,1.17,0,0,1,.26,0,1.33,1.33,0,0,1,.58,1.71" transform="translate(0 0)" fill="#568ebf"/><path d="M20.4,21.17,8.65,28.7a1,1,0,0,0-.3,1.38,1,1,0,0,0,.84.46,1,1,0,0,0,.54-.16l11.75-7.52a1,1,0,0,0-1.08-1.69" transform="translate(0 0)" fill="#568ebf"/></g></svg>