<svg xmlns="http://www.w3.org/2000/svg" xmlns:xlink="http://www.w3.org/1999/xlink" width="60.12" height="79.98" viewBox="0 0 60.12 79.98"><defs><clipPath id="a" transform="translate(0 0)"><rect width="60.13" height="79.99" fill="none"/></clipPath></defs><g clip-path="url(#a)"><path d="M33.79,20.1V17.05a8.15,8.15,0,1,0-8.66,0v3.24a30.09,30.09,0,1,0,8.66-.17m-10.46-10a6.15,6.15,0,1,1,10.46,4.37V12.8H25.13v1.69a6.11,6.11,0,0,1-1.8-4.34m8.46,5.69a6.15,6.15,0,0,1-2.32.46,6.07,6.07,0,0,1-2.34-.47v-1h4.66ZM29.47,18.3A8.39,8.39,0,0,0,31.79,18v1.51H27.13V18a8.23,8.23,0,0,0,2.34.35M30.06,78A28.07,28.07,0,1,1,58.13,49.92,28.1,28.1,0,0,1,30.06,78" transform="translate(0 0)" fill="#ccddec"/><path d="M30.06,24.13a25.8,25.8,0,1,0,25.8,25.79,25.79,25.79,0,0,0-25.8-25.79m0,49.59a23.8,23.8,0,1,1,23.8-23.8,23.82,23.82,0,0,1-23.8,23.8" transform="translate(0 0)" fill="#ccddec"/><path d="M27.05,37.05h1a.29.29,0,0,0,.22-.08.32.32,0,0,0,.08-.21V31.6l3.45,5.26a.58.58,0,0,1,.1.11.3.3,0,0,0,.25.08h.93a.24.24,0,0,0,.2-.08.29.29,0,0,0,.09-.22V29a.31.31,0,0,0-.3-.3h-1a.26.26,0,0,0-.21.09.29.29,0,0,0-.08.21v5.27l-3.45-5.38-.11-.11a.33.33,0,0,0-.24-.08h-.92a.27.27,0,0,0-.21.09.25.25,0,0,0-.08.21v7.81a.28.28,0,0,0,.08.21.26.26,0,0,0,.21.08" transform="translate(0 0)" fill="#ccddec"/><path d="M32.23,66.78a9,9,0,0,0-1.67-.52c-.48-.13-.86-.25-1.16-.36a1.8,1.8,0,0,1-.63-.39.83.83,0,0,1-.2-.56.81.81,0,0,1,.4-.75A2.08,2.08,0,0,1,30,64a1.76,1.76,0,0,1,1,.26,1,1,0,0,1,.47.63.42.42,0,0,0,.15.19.48.48,0,0,0,.2,0H33a.22.22,0,0,0,.19-.08.27.27,0,0,0,.06-.17,1.61,1.61,0,0,0-.22-.76,2.54,2.54,0,0,0-.6-.73,2.91,2.91,0,0,0-1-.55A3.93,3.93,0,0,0,30,62.59a4,4,0,0,0-1.67.31,2.45,2.45,0,0,0-1.08.85A2,2,0,0,0,26.88,65a2.14,2.14,0,0,0,.3,1.19,2.39,2.39,0,0,0,.92.78,7.42,7.42,0,0,0,1.5.52,12.15,12.15,0,0,1,1.26.37,2,2,0,0,1,.7.38.74.74,0,0,1,.23.56.93.93,0,0,1-.43.78,2.32,2.32,0,0,1-1.29.29,2.26,2.26,0,0,1-.89-.15,1.59,1.59,0,0,1-.56-.36,1.23,1.23,0,0,1-.28-.45.58.58,0,0,0-.14-.17.37.37,0,0,0-.23-.06H26.9a.24.24,0,0,0-.25.25A2,2,0,0,0,27.06,70a2.61,2.61,0,0,0,1.14.86,4.67,4.67,0,0,0,1.87.33,5.13,5.13,0,0,0,1.79-.29,2.76,2.76,0,0,0,1.19-.86,2.16,2.16,0,0,0,.43-1.35,2.07,2.07,0,0,0-.3-1.17,2.2,2.2,0,0,0-1-.77" transform="translate(0 0)" fill="#ccddec"/><path d="M17.68,46.4H16.62q-.3,0-.33.24l-1,5.42-1.09-3.5a.58.58,0,0,0-.11-.2.34.34,0,0,0-.28-.1h-.64a.33.33,0,0,0-.27.1.67.67,0,0,0-.13.2l-1.08,3.52-1-5.44q0-.24-.33-.24H9.3a.23.23,0,0,0-.17.07.22.22,0,0,0-.08.18.08.08,0,0,0,0,0v.06l1.43,7.69a.51.51,0,0,0,.14.26.37.37,0,0,0,.28.1h.8a.37.37,0,0,0,.29-.1.7.7,0,0,0,.15-.2l1.34-4,1.34,4a.52.52,0,0,0,.14.2.37.37,0,0,0,.28.1h.81a.41.41,0,0,0,.29-.1.5.5,0,0,0,.13-.26l1.43-7.69a.35.35,0,0,1,0-.06v0a.29.29,0,0,0-.07-.18.23.23,0,0,0-.17-.07" transform="translate(0 0)" fill="#ccddec"/><path d="M51.23,53.5a.33.33,0,0,0-.22-.08H47v-2.2h3.68a.26.26,0,0,0,.3-.28v-.75a.29.29,0,0,0-.08-.21.33.33,0,0,0-.22-.08H47V47.78h4a.3.3,0,0,0,.21-.08.28.28,0,0,0,.08-.21V46.7a.29.29,0,0,0-.08-.22.3.3,0,0,0-.21-.08H45.63a.3.3,0,0,0-.2.08.29.29,0,0,0-.08.22v7.81a.28.28,0,0,0,.08.21.3.3,0,0,0,.2.08H51a.33.33,0,0,0,.22-.08.32.32,0,0,0,.08-.21v-.79a.33.33,0,0,0-.08-.22" transform="translate(0 0)" fill="#ccddec"/><path d="M19.11,60.87l13.77-8.14L41,39,27.25,47.11ZM35.33,44.66l-3.91,6.61L24.8,55.19l3.91-6.62Z" transform="translate(0 0)" fill="#ccddec"/><path d="M33.79,18.1V15.05a8.15,8.15,0,1,0-8.66,0v3.24a30.09,30.09,0,1,0,8.66-.17m-10.46-10a6.15,6.15,0,1,1,10.46,4.37V10.8H25.13v1.69a6.11,6.11,0,0,1-1.8-4.34m8.46,5.69a6.15,6.15,0,0,1-2.32.46,6.07,6.07,0,0,1-2.34-.47v-1h4.66ZM29.47,16.3A8.39,8.39,0,0,0,31.79,16v1.51H27.13V16a8.23,8.23,0,0,0,2.34.35M30.06,76A28.07,28.07,0,1,1,58.13,47.92,28.1,28.1,0,0,1,30.06,76" transform="translate(0 0)" fill="#568ebf"/><path d="M30.06,22.13a25.8,25.8,0,1,0,25.8,25.79,25.79,25.79,0,0,0-25.8-25.79m0,49.59a23.8,23.8,0,1,1,23.8-23.8,23.82,23.82,0,0,1-23.8,23.8" transform="translate(0 0)" fill="#568ebf"/><path d="M27.05,35.05h1a.29.29,0,0,0,.22-.08.32.32,0,0,0,.08-.21V29.6l3.45,5.26a.58.58,0,0,1,.1.11.3.3,0,0,0,.25.08h.93a.24.24,0,0,0,.2-.08.29.29,0,0,0,.09-.22V27a.31.31,0,0,0-.3-.3h-1a.26.26,0,0,0-.21.09.29.29,0,0,0-.08.21v5.27l-3.45-5.38-.11-.11a.33.33,0,0,0-.24-.08h-.92a.27.27,0,0,0-.21.09.25.25,0,0,0-.08.21v7.81a.28.28,0,0,0,.08.21.26.26,0,0,0,.21.08" transform="translate(0 0)" fill="#568ebf"/><path d="M32.23,64.78a9,9,0,0,0-1.67-.52c-.48-.13-.86-.25-1.16-.36a1.8,1.8,0,0,1-.63-.39.83.83,0,0,1-.2-.56.81.81,0,0,1,.4-.75A2.08,2.08,0,0,1,30,62a1.76,1.76,0,0,1,1,.26,1,1,0,0,1,.47.63.42.42,0,0,0,.15.19.48.48,0,0,0,.2,0H33a.22.22,0,0,0,.19-.08.27.27,0,0,0,.06-.17,1.61,1.61,0,0,0-.22-.76,2.54,2.54,0,0,0-.6-.73,2.91,2.91,0,0,0-1-.55A3.93,3.93,0,0,0,30,60.59a4,4,0,0,0-1.67.31,2.45,2.45,0,0,0-1.08.85A2,2,0,0,0,26.88,63a2.14,2.14,0,0,0,.3,1.19,2.39,2.39,0,0,0,.92.78,7.42,7.42,0,0,0,1.5.52,12.15,12.15,0,0,1,1.26.37,2,2,0,0,1,.7.38.74.74,0,0,1,.23.56.93.93,0,0,1-.43.78,2.32,2.32,0,0,1-1.29.29,2.26,2.26,0,0,1-.89-.15,1.59,1.59,0,0,1-.56-.36,1.23,1.23,0,0,1-.28-.45.58.58,0,0,0-.14-.17.37.37,0,0,0-.23-.06H26.9a.24.24,0,0,0-.25.25A2,2,0,0,0,27.06,68a2.61,2.61,0,0,0,1.14.86,4.67,4.67,0,0,0,1.87.33,5.13,5.13,0,0,0,1.79-.29,2.76,2.76,0,0,0,1.19-.86,2.16,2.16,0,0,0,.43-1.35,2.07,2.07,0,0,0-.3-1.17,2.2,2.2,0,0,0-1-.77" transform="translate(0 0)" fill="#568ebf"/><path d="M17.68,44.4H16.62q-.3,0-.33.24l-1,5.42-1.09-3.5a.58.58,0,0,0-.11-.2.34.34,0,0,0-.28-.1h-.64a.33.33,0,0,0-.27.1.67.67,0,0,0-.13.2l-1.08,3.52-1-5.44q0-.24-.33-.24H9.3a.23.23,0,0,0-.17.07.22.22,0,0,0-.08.18.08.08,0,0,0,0,0v.06l1.43,7.69a.51.51,0,0,0,.14.26.37.37,0,0,0,.28.1h.8a.37.37,0,0,0,.29-.1.7.7,0,0,0,.15-.2l1.34-4,1.34,4a.52.52,0,0,0,.14.2.37.37,0,0,0,.28.1h.81a.41.41,0,0,0,.29-.1.5.5,0,0,0,.13-.26l1.43-7.69a.35.35,0,0,1,0-.06v0a.29.29,0,0,0-.07-.18.23.23,0,0,0-.17-.07" transform="translate(0 0)" fill="#568ebf"/><path d="M51.23,51.5a.33.33,0,0,0-.22-.08H47v-2.2h3.68a.26.26,0,0,0,.3-.28v-.75a.29.29,0,0,0-.08-.21.33.33,0,0,0-.22-.08H47V45.78h4a.3.3,0,0,0,.21-.08.28.28,0,0,0,.08-.21V44.7a.29.29,0,0,0-.08-.22.3.3,0,0,0-.21-.08H45.63a.3.3,0,0,0-.2.08.29.29,0,0,0-.08.22v7.81a.28.28,0,0,0,.08.21.3.3,0,0,0,.2.08H51a.33.33,0,0,0,.22-.08.32.32,0,0,0,.08-.21v-.79a.33.33,0,0,0-.08-.22" transform="translate(0 0)" fill="#568ebf"/><path d="M19.11,58.87l13.77-8.14L41,37,27.25,45.11ZM35.33,42.66l-3.91,6.61L24.8,53.19l3.91-6.62Z" transform="translate(0 0)" fill="#568ebf"/></g></svg>