<svg xmlns="http://www.w3.org/2000/svg" xmlns:xlink="http://www.w3.org/1999/xlink" viewBox="0 0 167.4 160.63"><defs><clipPath id="a" transform="translate(0 0)"><rect width="167.4" height="160.63" fill="none"/></clipPath></defs><g clip-path="url(#a)"><path d="M42.26,59.13c.27,1.12,1.36-5.23,11.53-17.1a36.09,36.09,0,0,1,8.57-7.27.85.85,0,0,0-.2-1.55c-1.15-.31-2.24-.61-3.35-.83a38,38,0,0,0-11.47-.46c-.85.09-1.05.51-.83,1.22a16.41,16.41,0,0,0,.86,2.47C48.52,38,53.6,38.73,51.86,41c-4.9,6.42-9.93,16.73-9.6,18.12" transform="translate(0 0)" fill="#161616"/><path d="M115.73,60.33a5.72,5.72,0,1,0-.06,3.69c-2.92,0-6.12,0-7.11-.12-1.38-.18-.26-.44.65-.48,8-.31.51-1.51,5.2-1.66.61,0,1-.67.2-1.16-.26-.17.28-.24,1.12-.27" transform="translate(0 0)" fill="#161616"/><path d="M52.43,99.81c2,0,3.56-.19,3.56-.43S54.39,99,52.43,99s-3.57.19-3.57.42,1.6.43,3.57.43" transform="translate(0 0)" fill="#161616"/><path d="M100.6,110.45a11.35,11.35,0,0,0,3.56-.28,11.16,11.16,0,0,0-3.56-.29,11.25,11.25,0,0,0-3.57.29,11.44,11.44,0,0,0,3.57.28" transform="translate(0 0)" fill="#161616"/><path d="M112.28,106.82a13.9,13.9,0,0,0,3.57-.23,14.78,14.78,0,0,0-3.57-.22,14.66,14.66,0,0,0-3.56.22,13.79,13.79,0,0,0,3.56.23" transform="translate(0 0)" fill="#161616"/><path d="M67.61,111.73a13.79,13.79,0,0,0,3.56.23,13.9,13.9,0,0,0,3.57-.23,13.9,13.9,0,0,0-3.57-.23,13.79,13.79,0,0,0-3.56.23" transform="translate(0 0)" fill="#161616"/><path d="M82,115.93c0,.25,1.59.46,3.56.46s3.57-.21,3.57-.46-1.6-.47-3.57-.47-3.56.21-3.56.47" transform="translate(0 0)" fill="#161616"/><path d="M87.89,117.25a4.92,4.92,0,0,0-2.33-.29,4.92,4.92,0,0,0-2.33.29,5.15,5.15,0,0,0,2.33.28,5.15,5.15,0,0,0,2.33-.28" transform="translate(0 0)" fill="#161616"/><path d="M39.6,111.31c.11.8.83,4.73,1.5,4.7,1.11-.06.55-3.53,3.07-3.87,1-.13,2,.24,2.31-1.43,1.05,1.48,2.3,1.44,3.59,1.45a7.26,7.26,0,0,1,2.08.46c.79.26,1.54.64,2.31.92,1.43.53,2.8,1.08,3.23,2.77.05.18.12.55.43.6a.4.4,0,0,0,.46-.37,2.69,2.69,0,0,0-.07-.76,46.83,46.83,0,0,0-1.71-5.66,11.62,11.62,0,0,0-6.24-6.54l-.15-.08c6.69.27,12.36.86,19.25,1.33-.51-.24-.35-.51-.23-.72.25-.43,2.28-1,19.17-1,4.11,0-13.76,1.06-13.76,1.55,0,.31,3.11.58,4.37.73l.57,0c1.53,0,1.2,1.22.27,1.29L62.24,107c-.84.1-1,1,.06,1.09l17.72.87c1.74,0,1.28.86.14.88,0,0-3.27.08-4.85.08-1.09,0-1.56.84,2.42.83,2.11,0,2.89.61,3.39,1.13-3.11,0-4.76-.11-2.12.71-.44.74,1.56,1.1,3.61,1-.27,1-3.49,1.53-1.62,1.53,3,0,10,.42,7.81-.82-1.8-1,6.63-.43,6.25-1.87-.21-.62-6.48-.86-3.52-1.7.16-.12,3.56,0,3.13-.91-.25-.51,5.48-1.2-.58-1.16l-5.52-.14c-.88-.25-.31-.81.13-.8l15.75-.25c.57,0,.64-.45,0-.58.06-.48-3.61-1.19-5-1.22-4.33-.07-1.67-1-3-1.43-.58-.22-.48-.65.05-.79l3.11-.25a.11.11,0,0,0,0,.06c0,.46,4.27,1.4,10,.85,7.48-.71-5.22.08-5.23-.85,0-.31,1-.46,1.94-.55,7-.47,12.09-.7,21.8-1.45.73-.09,1.06-.82,0-.91L93,98.84c-.86-.08-.49-.5,0-.62,8.78-1,17.71-.37,26.43-1.94.76-.09.94-.7-.05-.77L98.18,94.39c-.76,0-.48-.31-.09-.36,4.26-.26,8.76-.19,13-.35,5.56-.21,10.66-.17,16.22-.39,1.4-.06,5.57-.16,4.62-.76-1.31-.47-15.31-.57-31.46-.56-2.59-1.37-4.45-2-5.85-3.19S92,87,90.23,88.25a3.15,3.15,0,0,1-3-.1c-.75-.69-.91-2.11-1.11-3.26-.09-.51.34-1.1.64-2l-5.09,2.51c2.67-2.92,4.89-4.86,6.48-7.22s3-2.22,4.93-.65c1.3,1.07,2.68,2.05,4.21,3.22-1.9-5-3.64-9.4-5.23-13.86-.27-.74.11-1.7.19-2.56.86.39,2,.55,2.52,1.21,3.35,4.47,6.55,9,9.8,13.6l2.09,3,.71-.62c.06-.58.12-1.16.23-2.14,4.58,1.81,8.15,10,13.18,10.16-3.74-2-6.55-7.28-8.83-9.84a8.83,8.83,0,0,0-2.53-1.46c-1.64-.86-3.7-1.33-4.86-2.62-3.08-3.4-5.58-7.34-8.72-10.68-1.31-1.39-4.55-3-5.37-2.45A120,120,0,0,0,77.13,73.9c-3.22,3.15-3.06,3.38-6.28.29-2.57-2.46-3.63-2.28-5.9.65a78.41,78.41,0,0,1-6.9,8.26c-3.27,3.19-9.95,8.06-13.44,11,0,0,0,0,0,0l-.5.14a20.69,20.69,0,0,1,.19-4.3A32,32,0,0,1,59,66.56c1.6-1.06,3.29-2,5-3,.28,3-.24,4.28-1.05,5.38s-2.25,2.35-1.59,2.68c1.73.85,2.94.37,4.38-.63,1.23-.86,2.12-1.85,3.44-2.7,1.06,1.56,1.87,3.16,3.56,4.26A1.49,1.49,0,0,0,75,71.79s.25-.7.35-1.05c1.33-4.53,1.94-7,1.92-10.46a1.25,1.25,0,0,1,1.14-1.46,61,61,0,0,0,14.85-6.14A25.35,25.35,0,0,0,103.63,42a5.44,5.44,0,0,0,.53-2.61,2.19,2.19,0,0,0-.32-1v0c-1.58-2.31-5-5.85-9.45-6.62-8.3-1.43-21.45.72-23.17,1a.22.22,0,0,0-.19.22.23.23,0,0,0,.26.23c1.83-.22,13.09-1.51,19.6-1,5.61.48,7.53,1.85,10.74,5.21.08.09.79.9.23,1.54a28.83,28.83,0,0,1-6.24,4.29c-3.56,2-7.19,4-10.84,5.89-1.67.87-4.12.85-5.21-.06-2.16-1.82-.53-4.87-1.75-5.71-2-1.33-5.07,3-7.31,3.85-2,.73-3.73-.32-6.61.54-4.64,1.37-7.73,5.15-9.08,10-.57,2.05-1,4.14-1.49,6.22-.61,2.71-1.12,5.43-2.69,7.83-4.72,7.2-6.4,6.78-6.87,6.54s-1.9-1.44-.05-4.62c2.36-4.06,4.08-4.89,3.69-7.35a1.56,1.56,0,0,0-2.36-1.23,3.76,3.76,0,0,0-.59.61,20.9,20.9,0,0,0-3.52,9A53.11,53.11,0,0,0,42.1,96.73a9.74,9.74,0,0,1-1,7.87,10.2,10.2,0,0,0-1.48,6.71M67.46,74.78a5.48,5.48,0,0,1,1.05.77c4.76,5.87,10.08,11,16.87,14.58A17.31,17.31,0,0,0,92,92L76.34,92c-6.26-2.75-7.42-3.93-7.64-7.19L72,86.16c-5.42-7.87-5.6-8.34-4.49-11.38M48.9,96.05c9-.19,11.76-.22,20.57-.15,3.62,0,4.67-.05,4.63.93,0,.28-.16.56-.91.68,0,0-8.53.7-14.84,1.47-.41,0-.88.51,0,.69l13,1.56c.37,0,.41.39,0,.42L49.45,102.8a.81.81,0,0,0-.25.09,10.17,10.17,0,0,1-3.57-3.57A10.45,10.45,0,0,1,44.34,96c1.07.07,2.55.09,4.56,0M81.33,54a16.39,16.39,0,0,1,5.16-3.36c8.32-3.12,10.42-2.83,10.87-2.28.3.38-1.9,1.86-2.92,2.58-4.41,3.14-10.21,5.16-13.2,5.4-1.45.11-.54-1.71.09-2.34" transform="translate(0 0)" fill="#161616"/><path d="M124.62,96.45c-1.44.55,2.8.07,2.8-.43,0-.23-1.25-.42-2.8-.42s-2.79,0-2.79.26,4.72-.14,2.79.59" transform="translate(0 0)" fill="#161616"/><path d="M83.7,0C45.09,0,12.61,26.39,3,62.26h0v.1A84.15,84.15,0,0,0,1,71.26H1v.18a86.13,86.13,0,0,0-1,13c0,.57,0,1.13,0,1.7A84.53,84.53,0,0,1,1.36,72.75c6.25,0,10.34-.35,10.34-.75s-4-.72-10-.74c.1-.5.18-1,.29-1.51,6.48,0,21.68-.34,21.68-.75S9,68.27,2.29,68.26c.12-.51.25-1,.37-1.51,6.61,0,30.61-.34,30.61-.75S10.12,65.27,3,65.26c.14-.51.3-1,.45-1.51,6.64,0,19.13-.35,19.13-.75s-12-.71-18.69-.74C14.68,28.13,46.32,3.39,83.7,3.39a82.91,82.91,0,0,1,55.15,21c-7.31.05-20.69.36-20.69.73s15.6.74,22.31.75l1.6,1.51c-8.46.05-31,.36-31,.74s25.52.74,32.42.75c.49.5,1,1,1.46,1.52-7.35,0-22,.35-22,.73s16.57.74,23.31.75a84.56,84.56,0,0,1,17.48,31.47c-6.82,0-21,.34-21,.74s14.78.74,21.4.74c.14.51.28,1,.41,1.52-7.65,0-38.1.34-38.1.74s31.51.74,38.47.75c.12.5.26,1,.37,1.51-7.09,0-28.16.34-28.16.74s21.69.74,28.46.75c.1.5.2,1,.29,1.51-6.53,0-17.21.34-17.21.74s11,.74,17.49.75a87,87,0,0,1,1.15,12.39c0-.57,0-1.13,0-1.7C167.4,37.82,129.92,0,83.7,0" transform="translate(0 0)" fill="#161616"/><path d="M32.75,132.34q-9.54.12-13.56,6.62a14.42,14.42,0,0,0-1.08,12.86,13.42,13.42,0,0,0,3.4,4.94q4.18,3.87,11.28,3.87,9.45,0,13.6-6.65a14.23,14.23,0,0,0-2.3-17.78q-4.19-3.85-11.34-3.86m9,17.94a9.16,9.16,0,0,1-2.37,3.38A9.39,9.39,0,0,1,32.81,156a9.46,9.46,0,0,1-6.55-2.32,9.89,9.89,0,0,1,0-14.36A9.44,9.44,0,0,1,32.77,137a9.84,9.84,0,0,1,6.57,2.32,9.14,9.14,0,0,1,3.09,7.3,9.73,9.73,0,0,1-.72,3.68" transform="translate(0 0)" fill="#161616"/><path d="M79,156.32l-5.3-7.55q7.43-1.14,7.43-7.82a9.32,9.32,0,0,0-.74-3.69A6.35,6.35,0,0,0,78,134.44a8.74,8.74,0,0,0-3.19-1.26,26.83,26.83,0,0,0-4.95-.36H52.8v.64a2.06,2.06,0,0,1,1,.52,1.37,1.37,0,0,1,.28.94v23.14a1.33,1.33,0,0,1-.28.92,2,2,0,0,1-1,.52v.64h8.53v-.64a1.91,1.91,0,0,1-1-.51,1.33,1.33,0,0,1-.29-.93V149h7.29l5.53,8a5,5,0,0,1,.94,1.74q0,.57-1,.72v.64h9.88v-.64a2.57,2.57,0,0,1-1.59-.63A16.78,16.78,0,0,1,79,156.32m-6.88-11.95a23.51,23.51,0,0,1-2.89.12h-9.2v-7.17h9.2a26.18,26.18,0,0,1,2.9.11,4.61,4.61,0,0,1,1.53.51,3.65,3.65,0,0,1,0,5.93,4.65,4.65,0,0,1-1.54.5" transform="translate(0 0)" fill="#161616"/><path d="M112.26,157.25a7,7,0,0,1,2-1,1.62,1.62,0,0,1,.92.52l.52-.36-3.8-5.69-.54.38c0,.2,0,.37,0,.52a1.54,1.54,0,0,1-.51,1.09,8.15,8.15,0,0,1-1.78,1.23,15.05,15.05,0,0,1-7.5,2,11.21,11.21,0,0,1-7.47-2.34,9.45,9.45,0,0,1,0-14.32,11.21,11.21,0,0,1,7.47-2.34,15.05,15.05,0,0,1,7.5,2,8.19,8.19,0,0,1,1.78,1.22,1.52,1.52,0,0,1,.51,1.09c0,.15,0,.33,0,.54l.54.36,3.8-5.71-.52-.36a1.56,1.56,0,0,1-.92.52,7,7,0,0,1-2-.94,28.52,28.52,0,0,0-5.81-2.68,20.07,20.07,0,0,0-5.56-.68q-8.83,0-13.2,5.5a13.53,13.53,0,0,0-2.9,8.63,13.91,13.91,0,0,0,1.62,6.67,13,13,0,0,0,3.84,4.42,17.42,17.42,0,0,0,10.61,3.07,20,20,0,0,0,5.6-.7,27.82,27.82,0,0,0,5.8-2.68" transform="translate(0 0)" fill="#161616"/><path d="M147.81,157,137.4,136a3,3,0,0,1-.38-1.32c0-.56.39-.95,1.18-1.18v-.64h-9.69v.64c.78.27,1.16.71,1.16,1.32a4,4,0,0,1-.48,1.6l-10,21a5.3,5.3,0,0,1-1,1.56,2.31,2.31,0,0,1-1.22.56v.65h9v-.65c-.89-.22-1.34-.63-1.34-1.22A3.33,3.33,0,0,1,125,157l1.84-3.84H139.3l1.88,3.84a3.16,3.16,0,0,1,.4,1.24c0,.68-.44,1.1-1.33,1.24v.65h10.06v-.65a2.49,2.49,0,0,1-1.34-.65,7,7,0,0,1-1.16-1.83m-19.16-7.59,4.5-9.73,4.44,9.73Z" transform="translate(0 0)" fill="#161616"/></g></svg>