<svg width="0" height="0" class="hidden">
  <symbol xmlns="http://www.w3.org/2000/svg" viewBox="0 0 19.21 20.01" id="ic_arr_hor">
    <polygon points="10.01 0 4.6 5.3 0 9.8 10 20.01 19 20.01 9.1 9.9 19.21 0 10.01 0" fill="currentColor"></polygon>
  </symbol>
  <symbol xmlns="http://www.w3.org/2000/svg" xmlns:xlink="http://www.w3.org/1999/xlink" viewBox="0 0 15.27 10.9" id="ic_arrow_hor">
    <path d="M14.41,5.8,9.47.85a.48.48,0,0,1,0-.7.48.48,0,0,1,.7,0l4.95,4.94a.5.5,0,1,1-.71.71" transform="translate(0 0)" fill="currentColor" fill-rule="evenodd"></path>
    <path d="M10.17,10.75,15.12,5.8a.5.5,0,0,0,0-.71.51.51,0,0,0-.71,0L9.47,10a.5.5,0,0,0,0,.71.48.48,0,0,0,.7,0" fill="currentColor" fill-rule="evenodd"></path>
    <path d="M14.77,6H.5a.5.5,0,0,1-.5-.5A.5.5,0,0,1,.5,5H14.77a.5.5,0,0,1,.5.5.51.51,0,0,1-.5.5" fill="currentColor" fill-rule="evenodd"></path>
  </symbol>
  <symbol xmlns="http://www.w3.org/2000/svg" xmlns:xlink="http://www.w3.org/1999/xlink" viewBox="0 0 30.5 27.5" id="ic_cart">
    <path d="M28.25,11H26.5V8.34a1.68,1.68,0,0,0,1-1.54v-3A3.75,3.75,0,0,0,23.75,0h-17A3.75,3.75,0,0,0,3,3.75V6.8A1.68,1.68,0,0,0,4,8.34V11H2.25A2.25,2.25,0,0,0,0,13.25v9A2.25,2.25,0,0,0,2.25,24.5H4.08a3.75,3.75,0,0,0,3.67,3h15a3.75,3.75,0,0,0,3.67-3h1.83a2.25,2.25,0,0,0,2.25-2.25v-9A2.25,2.25,0,0,0,28.25,11M4.5,3.75A2.25,2.25,0,0,1,6.75,1.5h17A2.25,2.25,0,0,1,26,3.75V6.8a.2.2,0,0,1-.2.2H4.7a.2.2,0,0,1-.2-.2Zm8,4.75H17v2.25A1.25,1.25,0,0,1,15.75,12h-2a1.25,1.25,0,0,1-1.25-1.25ZM1.5,22.25v-9a.75.75,0,0,1,.75-.75H4V23H2.25a.76.76,0,0,1-.75-.75M8.5,26V20.75a2.25,2.25,0,0,1,2.25-2.25h9A2.25,2.25,0,0,1,22,20.75L22,26Zm15-.1V20.75A3.75,3.75,0,0,0,19.75,17h-9A3.75,3.75,0,0,0,7,20.75v5.11a2.25,2.25,0,0,1-1.5-2.11V8.5H11v2.25a2.75,2.75,0,0,0,2.75,2.75h2a2.75,2.75,0,0,0,2.75-2.75V8.5H25V23.75a2.25,2.25,0,0,1-1.5,2.11M29,22.25a.76.76,0,0,1-.75.75H26.5V12.5h1.75a.76.76,0,0,1,.75.75Z" fill="currentColor"></path>
  </symbol>
  <symbol xmlns="http://www.w3.org/2000/svg" xmlns:xlink="http://www.w3.org/1999/xlink" viewBox="0 0 30.5 27.5" id="ic_clear_cart">
    <path d="M22.24,10.93a8.26,8.26,0,1,0,8.26,8.25,8.25,8.25,0,0,0-8.26-8.25m0,15A6.76,6.76,0,1,1,29,19.18a6.76,6.76,0,0,1-6.76,6.76" fill="currentColor"></path>
    <path d="M26.54,14.89a.74.74,0,0,0-1.06,0l-3.24,3.23L19,14.89A.75.75,0,0,0,17.94,16l3.24,3.23-3.24,3.24a.75.75,0,0,0,.54,1.28.74.74,0,0,0,.53-.22l3.23-3.24,3.24,3.24a.73.73,0,0,0,.53.22.74.74,0,0,0,.53-.22.75.75,0,0,0,0-1.06L23.3,19.18,26.54,16a.75.75,0,0,0,0-1.06" fill="currentColor"></path>
    <path d="M8.5,26V20.75a2.25,2.25,0,0,1,2.25-2.25h1.77a9.35,9.35,0,0,1,.22-1.5h-2A3.75,3.75,0,0,0,7,20.75v5.11a2.25,2.25,0,0,1-1.5-2.11V8.5H11v2.25a2.75,2.75,0,0,0,2.75,2.75h.58A9.52,9.52,0,0,1,15.66,12H13.75a1.25,1.25,0,0,1-1.25-1.25V8.5H17v2.25A1.11,1.11,0,0,1,17,11a10,10,0,0,1,1.55-.83V8.5H25V9.83a8.82,8.82,0,0,1,1.5.59V8.34a1.68,1.68,0,0,0,1-1.54v-3A3.75,3.75,0,0,0,23.75,0h-17A3.75,3.75,0,0,0,3,3.75V6.8A1.68,1.68,0,0,0,4,8.34V11H2.25A2.25,2.25,0,0,0,0,13.25v9A2.25,2.25,0,0,0,2.25,24.5H4.08a3.75,3.75,0,0,0,3.67,3h9.41A10.05,10.05,0,0,1,15.25,26ZM4,23H2.25a.76.76,0,0,1-.75-.75v-9a.76.76,0,0,1,.75-.75H4ZM4.7,7a.2.2,0,0,1-.2-.2v-3A2.25,2.25,0,0,1,6.74,1.5h17A2.25,2.25,0,0,1,26,3.75V6.8a.2.2,0,0,1-.2.2H4.7Z" fill="currentColor"></path>
    <path d="M28.25,11h-.71a9.88,9.88,0,0,1,3,3v-.76A2.25,2.25,0,0,0,28.25,11" fill="currentColor"></path>
  </symbol>
  <symbol xmlns="http://www.w3.org/2000/svg" xmlns:xlink="http://www.w3.org/1999/xlink" viewBox="0 0 15.33 15.33" id="ic_close">
    <line x1="0.75" y1="14.58" x2="14.58" y2="0.75" fill="none" stroke="currentColor" stroke-linecap="round" stroke-miterlimit="10" stroke-width="1.5"></line>
    <line x1="0.75" y1="0.75" x2="14.58" y2="14.58" fill="none" stroke="currentColor" stroke-linecap="round" stroke-miterlimit="10" stroke-width="1.5"></line>
  </symbol>
  <symbol xmlns="http://www.w3.org/2000/svg" xmlns:xlink="http://www.w3.org/1999/xlink" viewBox="0 0 23.8 23.8" id="ic_delete">
    <path d="M11.9,1.5A10.4,10.4,0,1,1,1.5,11.9,10.41,10.41,0,0,1,11.9,1.5m0-1.5A11.9,11.9,0,1,0,23.8,11.9,11.9,11.9,0,0,0,11.9,0" transform="translate(0 0)" fill="currentColor"></path>
    <line x1="6.47" y1="17.32" x2="17.32" y2="6.47" fill="none" stroke="currentColor" stroke-linecap="round" stroke-miterlimit="10" stroke-width="1.5"></line>
    <line x1="6.47" y1="6.47" x2="17.32" y2="17.32" fill="none" stroke="currentColor" stroke-linecap="round" stroke-miterlimit="10" stroke-width="1.5"></line>
  </symbol>
  <symbol xmlns="http://www.w3.org/2000/svg" viewBox="0 0 8.48 14.15" id="ic_double_arr_hor">
    <polygon points="0 0 0 0 7.07 7.07 0 14.14 0 14.14 1.41 14.14 7.78 7.78 8.48 7.07 7.78 6.37 1.41 0 0 0" fill="currentColor"></polygon>
  </symbol>
  <symbol xmlns="http://www.w3.org/2000/svg" xmlns:xlink="http://www.w3.org/1999/xlink" viewBox="0 0 26.98 27.5" id="ic_edit">
    <path d="M26.76,6.12,23.18,2.54a.75.75,0,0,0-1.06,0L11.51,13.14a.75.75,0,0,0,0,1.06l3.58,3.59a.77.77,0,0,0,.53.21.76.76,0,0,0,.53-.21l8.44-8.44h0l2.16-2.16a.75.75,0,0,0,0-1.06M15.62,16.19,13.1,13.67l7.38-7.38L23,8.81Zm8.44-8.44L21.54,5.23l1.11-1.1,2.52,2.52Z" fill="currentColor"></path>
    <path d="M9,21.74a.79.79,0,0,0,.54.22.73.73,0,0,0,.35-.09l3.72-2a.76.76,0,0,0,.18-1.2l-3.18-3.18a.75.75,0,0,0-1.19.18l-2,3.73a.76.76,0,0,0,.13.88Zm1.27-4.44L12,19.05,9.65,20.29,9,19.64Z" fill="currentColor"></path>
    <path d="M21,23.75A2.25,2.25,0,0,1,18.75,26h-15A2.25,2.25,0,0,1,1.5,23.75v-20A2.25,2.25,0,0,1,3.75,1.5H21v0l.06-.05A2.21,2.21,0,0,1,22.5.83V0H3.75A3.75,3.75,0,0,0,0,3.75v20A3.75,3.75,0,0,0,3.75,27.5h15a3.75,3.75,0,0,0,3.75-3.75V13.56L21,15.06Z" fill="currentColor"></path>
    <path d="M13.64,5.43a.75.75,0,0,0-.75-.75h-9a.75.75,0,0,0,0,1.5h9a.76.76,0,0,0,.75-.75" fill="currentColor"></path>
    <path d="M10.44,9.43a.75.75,0,0,0-.75-.75H3.92a.75.75,0,0,0,0,1.5H9.69a.76.76,0,0,0,.75-.75" fill="currentColor"></path>
  </symbol>
  <symbol xmlns="http://www.w3.org/2000/svg" xmlns:xlink="http://www.w3.org/1999/xlink" viewBox="0 0 29.5 29.5" id="ic_favorite">
    <path d="M14.75,7.75a7,7,0,1,0,7,7,7,7,0,0,0-7-7m0,12.5a5.5,5.5,0,1,1,5.5-5.5,5.51,5.51,0,0,1-5.5,5.5" transform="translate(0 0)" fill="currentColor"></path>
    <path d="M14.75,11.75a3,3,0,1,0,3,3,3,3,0,0,0-3-3m0,4.5a1.5,1.5,0,1,1,1.5-1.5,1.5,1.5,0,0,1-1.5,1.5" transform="translate(0 0)" fill="currentColor"></path>
    <path d="M28.75,14H27.4A12.65,12.65,0,0,0,15.5,2.1V.75a.75.75,0,0,0-1.5,0V2.1A12.65,12.65,0,0,0,2.1,14H.75a.75.75,0,0,0,0,1.5H2.1A12.65,12.65,0,0,0,14,27.4v1.35a.75.75,0,0,0,1.5,0V27.4A12.65,12.65,0,0,0,27.4,15.5h1.35a.75.75,0,0,0,0-1.5M15.5,25.9V24.75a.75.75,0,0,0-1.5,0V25.9A11.18,11.18,0,0,1,3.6,15.5H4.75a.75.75,0,0,0,0-1.5H3.6A11.18,11.18,0,0,1,14,3.6V4.75a.75.75,0,0,0,1.5,0V3.6A11.18,11.18,0,0,1,25.9,14H24.75a.75.75,0,0,0,0,1.5H25.9A11.18,11.18,0,0,1,15.5,25.9" transform="translate(0 0)" fill="currentColor"></path>
  </symbol>
  <symbol xmlns="http://www.w3.org/2000/svg" xmlns:xlink="http://www.w3.org/1999/xlink" viewBox="0 0 26.32 29.33" id="ic_file">
    <path d="M2.66,16a1,1,0,0,1-1.39,0,1,1,0,0,1,0-1.38l12.6-12.6A7.35,7.35,0,0,1,24.21,12.51L9.1,27.63,9,27.7a5.77,5.77,0,0,1-3.59,1.63,5.4,5.4,0,0,1-3.8-1.51v0l0,0A5.63,5.63,0,0,1,.3,25.85,4.49,4.49,0,0,1,0,23.67a5.39,5.39,0,0,1,1-2.51A12.86,12.86,0,0,1,2.53,19.4l14-14a3.12,3.12,0,0,1,4.38,0l0,0A3.1,3.1,0,0,1,21,9.71L21,9.78,8.88,21.85A1,1,0,0,1,7.5,20.47L19.6,8.36a1.17,1.17,0,0,0,0-1.6,1.15,1.15,0,0,0-1.63,0l-14,14A10.75,10.75,0,0,0,2.6,22.26,3.62,3.62,0,0,0,2,23.89a2.57,2.57,0,0,0,.15,1.26,3.61,3.61,0,0,0,3.23,2.23,3.93,3.93,0,0,0,2.36-1.14L22.83,11.13a5.4,5.4,0,0,0-7.59-7.69Z" fill="currentColor"></path>
  </symbol>
  <symbol xmlns="http://www.w3.org/2000/svg" xmlns:xlink="http://www.w3.org/1999/xlink" viewBox="0 0 32.77 27.69" id="ic_logout">
    <path d="M2.36,19.5l6.05-5v2.17h9v5.68h-9v2.17ZM0,19.5l9.91,8.19V23.84h9V15.16h-9V11.31Z" fill="currentColor"></path>
    <path d="M18.92,0A13.83,13.83,0,0,0,5.1,13.34L6.73,12a12.34,12.34,0,1,1,21.89,9.46,21.2,21.2,0,0,0-2.44-1.15l-.34-.14-2.93-1.24V17.88c.18-.28.36-.58.54-.91.07-.14.16-.29.24-.44a9.44,9.44,0,0,0,.84-1.79h0a3.15,3.15,0,0,0,.89-1.25,5.74,5.74,0,0,0,.24-2A1.46,1.46,0,0,0,25,10.32a9.25,9.25,0,0,0,0-1c0-2.45-1.83-5.09-5.81-5.09H19a6,6,0,0,0-4.49,1.69A5,5,0,0,0,13.2,9.27c0,.33,0,.68,0,1.05a1.44,1.44,0,0,0-.67,1.21,6,6,0,0,0,.23,2c0,.07.06.12.09.18h1.87a.87.87,0,0,0-.1-.08,1.73,1.73,0,0,1-.45-.61,9.6,9.6,0,0,1-.22-1.37.75.75,0,0,0,.75-.77,12.3,12.3,0,0,1,0-1.49A3.44,3.44,0,0,1,15.62,7,4.48,4.48,0,0,1,19,5.75h.12c3.17,0,4.3,1.94,4.31,3.66a10.71,10.71,0,0,1,0,1.42.69.69,0,0,0,.17.54.66.66,0,0,0,.5.23A4.59,4.59,0,0,1,24,13a1.62,1.62,0,0,1-.44.61.73.73,0,0,0-.43.52,6.65,6.65,0,0,1-.76,1.7c-.09.16-.18.31-.26.47a7.71,7.71,0,0,1-.58.95.73.73,0,0,0-.13.43v1.77a.76.76,0,0,0,.45.69l.25.1,3.15,1.34.34.15c.63.26,1.4.58,2,.91a12.33,12.33,0,0,1-8.69,3.58,12.09,12.09,0,0,1-4.47-.85h-3v.13A13.84,13.84,0,1,0,18.92,0" fill="currentColor"></path>
  </symbol>
  <symbol xmlns="http://www.w3.org/2000/svg" xmlns:xlink="http://www.w3.org/1999/xlink" viewBox="0 0 30 30" id="ic_menu">
    <path d="M0,15A15,15,0,1,0,15,0,15,15,0,0,0,0,15" fill="currentColor"></path>
    <path d="M20,11H10a1,1,0,0,1,0-2H20a1,1,0,0,1,0,2" fill="#fff"></path>
    <path d="M20,16H10a1,1,0,0,1,0-2H20a1,1,0,0,1,0,2" fill="#fff"></path>
    <path d="M20,21H10a1,1,0,0,1,0-2H20a1,1,0,0,1,0,2" fill="#fff"></path>
  </symbol>
  <symbol xmlns="http://www.w3.org/2000/svg" xmlns:xlink="http://www.w3.org/1999/xlink" viewBox="0 0 20 20" id="ic_notice">
    <path d="M10,1.5A8.5,8.5,0,1,1,1.5,10,8.51,8.51,0,0,1,10,1.5M10,0A10,10,0,1,0,20,10,10,10,0,0,0,10,0" fill="currentColor"></path>
    <path d="M10,3.9c-.57,0-1.17.15-1.17.68,0,.2,0,.57.06.84.17,1.66.54,5.24.72,7.68h.8c.16-2.44.57-6.13.72-7.7a6.71,6.71,0,0,0,.06-.8c0-.57-.64-.7-1.19-.7" fill="currentColor"></path>
    <path d="M10,14.1a1,1,0,1,0,1,1,1,1,0,0,0-1-1" fill="currentColor"></path>
  </symbol>
  <symbol xmlns="http://www.w3.org/2000/svg" xmlns:xlink="http://www.w3.org/1999/xlink" viewBox="0 0 27.65 27.5" id="ic_save">
    <path d="M9.24,8.49a.75.75,0,0,0-1.06,0L5.67,11a.76.76,0,0,0,0,1.07L13.2,19.6a.77.77,0,0,0,.53.22.75.75,0,0,0,.53-.22L27.43,6.43a.74.74,0,0,0,0-1.06L24.92,2.86a.75.75,0,0,0-1.06,0L13.74,13Zm15.15-4L25.84,5.9,13.73,18,7.26,11.53l1.45-1.45,4.5,4.5a.75.75,0,0,0,1.06,0Z" fill="currentColor"></path>
    <path d="M25.53,10.45a12,12,0,0,1,.47,3.3,12.28,12.28,0,1,1-5.17-10L21.9,2.7a13.73,13.73,0,1,0,5.6,11.05,13.57,13.57,0,0,0-.77-4.49Z" fill="currentColor"></path>
  </symbol>
  <symbol xmlns="http://www.w3.org/2000/svg" xmlns:xlink="http://www.w3.org/1999/xlink" viewBox="0 0 17.75 17.65" id="ic_search">
    <path d="M10.33,1.5A5.92,5.92,0,1,1,4.42,7.42,5.92,5.92,0,0,1,10.33,1.5m0-1.5a7.42,7.42,0,1,0,7.42,7.42A7.42,7.42,0,0,0,10.33,0" transform="translate(0 0)" fill="currentColor"></path>
    <line x1="5.48" y1="12.27" x2="0.75" y2="16.9" fill="none" stroke="currentColor" stroke-linecap="round" stroke-miterlimit="10" stroke-width="1.5"></line>
  </symbol>
  <symbol xmlns="http://www.w3.org/2000/svg" xmlns:xlink="http://www.w3.org/1999/xlink" viewBox="0 0 23.85 20" id="ic_telegram">
    <path d="M23.78,1.82l-3.6,17c-.27,1.2-1,1.5-2,.93l-5.49-4-2.64,2.55A1.41,1.41,0,0,1,9,18.77l.4-5.59L19.52,4c.44-.4-.09-.61-.69-.22L6.27,11.69.86,10c-1.18-.37-1.2-1.18.25-1.74L22.26.11c1-.37,1.84.21,1.52,1.71" fill="currentColor"></path>
  </symbol>
  <symbol xmlns="http://www.w3.org/2000/svg" xmlns:xlink="http://www.w3.org/1999/xlink" viewBox="0 0 27.69 27.69" id="ic_user">
    <path d="M13.85,0A13.85,13.85,0,1,0,27.69,13.85,13.85,13.85,0,0,0,13.85,0m0,1.5a12.33,12.33,0,0,1,9.7,20,22.19,22.19,0,0,0-2.45-1.15l-.34-.14-2.93-1.25v-1a8.74,8.74,0,0,0,.54-.91l.25-.44a9.41,9.41,0,0,0,.83-1.79h0a3.36,3.36,0,0,0,.89-1.25,6.29,6.29,0,0,0,.24-2,1.48,1.48,0,0,0-.67-1.21c0-.37,0-.7-.06-1,0-2.45-1.83-5.09-5.8-5.09h-.13A6,6,0,0,0,9.45,5.94,4.91,4.91,0,0,0,8.13,9.27c0,.33-.05.68-.06,1.05a1.47,1.47,0,0,0-.67,1.21,6,6,0,0,0,.24,2,3.09,3.09,0,0,0,.9,1.25,8.58,8.58,0,0,0,.84,1.81l.24.43a8.74,8.74,0,0,0,.54.91v1l-.11,0-2.82,1.2-.35.14a17.5,17.5,0,0,0-2.64,1.28A12.34,12.34,0,0,1,13.85,1.5M5.27,22.71a21.87,21.87,0,0,1,2.19-1l.35-.15,2.83-1.2.49-.21a.76.76,0,0,0,.53-.72V17.65a.76.76,0,0,0-.14-.43,9.17,9.17,0,0,1-.58-.95c-.08-.16-.17-.31-.26-.47a6.69,6.69,0,0,1-.76-1.7.75.75,0,0,0-.43-.52A1.62,1.62,0,0,1,9.05,13a8.36,8.36,0,0,1-.22-1.37.72.72,0,0,0,.53-.23.73.73,0,0,0,.22-.54,12.3,12.3,0,0,1,0-1.49A3.54,3.54,0,0,1,10.54,7a4.5,4.5,0,0,1,3.39-1.22h.13c3.16,0,4.3,1.94,4.31,3.66a12.87,12.87,0,0,1,0,1.42.74.74,0,0,0,.18.54.66.66,0,0,0,.5.23A4.59,4.59,0,0,1,18.94,13a1.73,1.73,0,0,1-.45.61.73.73,0,0,0-.43.52,6.6,6.6,0,0,1-.75,1.7c-.09.16-.18.31-.26.47a9.17,9.17,0,0,1-.58.95.71.71,0,0,0-.14.43v1.77a.75.75,0,0,0,.46.69l.24.1,3.15,1.34.35.15c.62.26,1.4.58,2,.91a12.31,12.31,0,0,1-17.26.1" fill="currentColor"></path>
  </symbol>
  <symbol xmlns="http://www.w3.org/2000/svg" xmlns:xlink="http://www.w3.org/1999/xlink" viewBox="0 0 26.18 29.38" id="ic_video_play">
    <path d="M.51,14.69V25.48a3.4,3.4,0,0,0,5.11,2.93L24,17.62a3.4,3.4,0,0,0,0-5.86L5.61,1A3.39,3.39,0,0,0,.5,3.9Z" fill="none" stroke="currentColor" stroke-miterlimit="10"></path>
  </symbol>
  <symbol xmlns="http://www.w3.org/2000/svg" xmlns:xlink="http://www.w3.org/1999/xlink" viewBox="0 0 19.9 20" id="ic_whatsapp">
    <path d="M17,2.91A9.82,9.82,0,0,0,10,0,9.91,9.91,0,0,0,1.41,14.87L0,20l5.25-1.38A9.91,9.91,0,0,0,10,19.83h0A9.92,9.92,0,0,0,19.9,9.92a9.77,9.77,0,0,0-2.9-7M14.84,13.45a2.52,2.52,0,0,1-1.67,1.18,3.43,3.43,0,0,1-1.56-.1A14.3,14.3,0,0,1,10.2,14,11,11,0,0,1,6,10.27,4.82,4.82,0,0,1,5,7.71a2.82,2.82,0,0,1,.86-2.07,1,1,0,0,1,.67-.31H7c.15,0,.36-.06.56.43s.7,1.71.76,1.84A.46.46,0,0,1,8.3,8a1.46,1.46,0,0,1-.25.41c-.12.15-.26.33-.37.44s-.25.25-.11.5A7.57,7.57,0,0,0,9,11.11a7,7,0,0,0,2,1.23c.25.12.39.1.54-.07s.62-.72.78-1,.33-.2.56-.12,1.44.68,1.69.81.42.18.48.28a2.08,2.08,0,0,1-.15,1.18" fill="currentColor" fill-rule="evenodd"></path>
  </symbol>
  <symbol xmlns="http://www.w3.org/2000/svg" xmlns:xlink="http://www.w3.org/1999/xlink" viewBox="0 0 30 21.08" id="ic_youtube">
    <path d="M15.19,21.08c-3.37-.1-6.58-.19-9.78-.31a12,12,0,0,1-2.07-.29A3.44,3.44,0,0,1,.76,18.17a12.43,12.43,0,0,1-.59-3.08,61.08,61.08,0,0,1-.1-7.41A18.08,18.08,0,0,1,.53,3.53,4.32,4.32,0,0,1,1.68,1.35,3.82,3.82,0,0,1,4.1.31C6.63.19,9.15,0,11.68,0c3.4,0,6.81,0,10.21.08A40.64,40.64,0,0,1,26.3.38,3.45,3.45,0,0,1,29.16,2.6a10.4,10.4,0,0,1,.65,3.11,59.17,59.17,0,0,1,.1,8,16.53,16.53,0,0,1-.51,4,3.7,3.7,0,0,1-2.91,2.85,11.4,11.4,0,0,1-1.84.21l-9.46.3m-3.26-6.71L20,10.19,11.93,6Z" fill="currentColor"></path>
  </symbol>
</svg>